<mxfile host="Electron" agent="Mozilla/5.0 (Windows NT 10.0; Win64; x64) AppleWebKit/537.36 (KHTML, like Gecko) draw.io/25.0.2 Chrome/128.0.6613.186 Electron/32.2.5 Safari/537.36" version="25.0.2">
  <diagram name="Page-1" id="PWI0BuCFbtgYqpM3jhuH">
    <mxGraphModel dx="1342" dy="766" grid="1" gridSize="10" guides="1" tooltips="1" connect="1" arrows="1" fold="1" page="1" pageScale="1" pageWidth="850" pageHeight="1100" math="0" shadow="0">
      <root>
        <mxCell id="0" />
        <mxCell id="1" parent="0" />
        <mxCell id="Dre4zNSUhhUe5slktHId-1" value="" style="shape=image;verticalLabelPosition=bottom;labelBackgroundColor=default;verticalAlign=top;aspect=fixed;imageAspect=0;image=data:image/png,iVBORw0KGgoAAAANSUhEUgAABDgAAAJgCAMAAABYwyMdAAADAFBMVEUAAAC6urh0dXRubm6wr6B6enrh4Mn//+v//+j//+nr6tH//+T//+bNzcqOjo5ra2z8/OKGhoWio6C6uqV7enmYmJGNjYCampqYmIqPj4nDw8KPj41vcXGgoJnHx8Z8fHxwcHHX19fz89n5+d+ysrLs7NalpZWvsKeysq5/f3rIyLLV1b5zdHG8vr9dX2J5eXmfn52ZmZqnp51ra2yNjY14eG7V1dWEhHicm4WmpZL//++Qj32Eg3NoaWSOjo+GhofKysmnp6eXl5eMjIxmZmd/f3yGhoJ4eHe6uqzAwLH/AACXl5hwcG/j483v79j09Nyxsab/AAD/AAD/AADZ2cbQ0L7o6NL/AQH/sLD/AgL/AAD/7u79Jib/AQH/QUH/AQHu7tj/AADg4MvIyLf/19f/qKj/9vb/bGz///L/ior/yspzcnJUVVX/tbX+mZlLS0NTU0tnZ10GBgUAAAAaGhcREQ8gIB7/3d06OjRHR0A0NDNDQz9iYl3/wcH///8sLCpwcGWAgYH/j49eXlWFhIN4eHd2dnZ3dnZ4eHd1dHNiZWc8Qkg4PkVFSU0mLjYeJzAZIywRGyULFiAIEx4SHCYvNj0iKjMVHylMUFVaXV8OGCMsMzs1O0IsFyA9FR4EDxpdMjibSk397e3VlZaELzNmERhQFBt6Gh+eHiLp4+W0aGqyS0vrztHUra/cgIHynJ7839/WYmTtxsk6Ojr70dL6xcYxOD/6vL34tbbxkpT1fH35/P6/QEPuqqwpMTkACRSgoaKur7Cztbe4ubu/wsTCxMbHycvLztDO0NLS1dbW2NvY297a3uHd4eTf4+bi5unl6ezo7O/q7vHt8fTEx8nJzM7Q09Xtu73u7u3w8/bq6uzp5uimp6jutbj2pqfvpKZOTk7z9/re3d3zYWL3rrDZvcBobnfq19nq3eBFZZLusbNgep58kKkgP3qYprcrVY8EP5IXRZAMSJcETZvhzdC6uqjOzrv4+OL//+f//+v//+/FxbNCQjvX18MpO1peXl1zPqzNAAABAHRSTlMAcv//////////////TOLo/7v+/6us8//xpDfO3bQqe4ge//5D//Dtj+H//8X/54ei37mNCvQF8///////////E1ZUcY6aoJjGzAhkk+ny9sIRIBff2Okrij5H8WxQeTPqWubR3LX5j/+h0hn+wK35/P///////+P/+f///8v///v/bfckQ1FrXjLO//////////////////////////////z//v7///////W2///////////////////////////r///+/////////////////////////////////////+L//////////////////////////+3r5+bm5ez56v+sIFBhdAAAuDtJREFUeAHs3Gd3o0gWxnEks1RR97qpEbttr1O3C9MrQeeoOOH7f6mF6iR5cgLP8f/nc54OD6+viwtSgt8EAAAAAAAAAAAAAAAAAAAAAAAAAAAAAAAAAAAAAAAAAAAAAAAAAAAAAAAAAAAAAAAAAAAAAAAAAAAAAAAAAAAAAAAAAAAAAAAAAAAAAAAAAAAAAAAAAAAAAAAAAAAAAAAAAAAAAAAAAAAAAAAAAAAAmPxBCYD7a3r0h0wTAPfXNP1D/pUAuL+mmbH572UcgwO434PDyu9mMwbH7wQwOJTB8c8CcOI4flDc8uA4AQbG4PBe5Mfh9+OwHndwfFPMygOz4t/J6AAGR+dj9HnXBsd/iocnp3tOHhb/TX4JAHYcZ+cXxYGLy6sEGBiDQ/9hT1WuHj1+tOfxo+sEGBiDw4cgIp/Ci1RdaBUqFf8pvtYS63EHx815ceji/CwBBsXgyINzXivnKvV9iHNBpe4juFq0q6Wvfaz7CPnIy9HT2ZO9n9kpO47hgRNHHUR9XXuVEMNVqjEqF1S9i3UX8vmasZ+qPEn3/e+k+CYBMMKO43bE/Llm5Pc4fnyrcpMAQ2NwqMh+WN0PsbfrsZej84ti/6dYzBMAQ9+quFpUnOuidvu3KlK5oOI/Rv21HvlWZV7ctpgkwKAYHMY1bWVD2wZbtU1tfds4q22Tqc2aVm1Xexu6a/o6xNqMOjieFm3t9tRN8TQBMPBTlTbzWrVtpT5rg0of6lqnWvfR1dLXXn1/TV+P/VQlbfY9S3nlHBj8VkXlJ+mniPQOvQA2WRRF8fx5F/HPUT7kBjA4rBWRGBoj14OIk2X/Gh15OXr8+PGLl68WxcVFsXj98sWbFzcJgJGWozG8ashiVCpVFlR8VqvEOobW2ajL0ejt/Lw/drwrisX55H0CYPDlaJaWVV6XZTChTF3uyzTLtUlba9u00byrfe7S/TouR0f+Ro6Tps2ytjktivPjBMDgT1XKxttQlsFWZVlb36RZPzNaq1naqnXpx7rq69DVpRt5cBwvipNMjMmNMZKdFgsmBzD8C2CVV9GqiiGivgvxQTrBq3S1HNYjL0fPFkXqc5VIc58W51cJgIGXoyYXkTyGURHbh34MKyIf42MtsR53cLx+PrNWvlB98vx1AmDgE4cLKuJqEaldF8F50cpVKj7Gp1pF+1qDG/fEcXzxobayJ3fvFmcJgGGXo8tVZdxyVZuwWmbGp8s2t+WyyfNmWWreLlPf16GvnalWy3bMHcf7+fPUyAGTPp+/TwAMODjWnwbH8nBwbPrBsYmDY/V5cCw/DY71iIPj+vxdZuWAbYvz6wTAOLcqGlyMX7pVkZFvVY4XH7zKofBu6AcrAMvRPG4/TQz9vCFdWxHtQ0we4/M1Nh91OTq5OFU5pP7hkJ+PBXDUGIlCUNHqY4iIr32XtVeRUKloCDEkytvpiF/GMVO57WTIr+QAcDTLVUTsxx3HcpMZv9r0O45tv+PYljZvN/2OY7MMfe2siKhJj+7S4FA5ZXAMCXgwzeI9SrbdOhM229b45bYxdrUtjSm3K2ua7bLq6k1t3GYbL86z6eJOnTgYHMMCJrtva6Oi0mZdZK1XdW2lWrdBNbS1atU6Vf+lFjXh292EEwdwj72/3H3X5sba9dpaa9Z5H2Y/8hixXne1ybNvd5fvOXEA99n15W46a9rfrJlNd5fXCScO4H6bnB/tjn6z3VH8BgxOHMA99/3N/OVvNv/h+2RM84sTThwA/vybo9UH3hz9BQCuzt85Kwdsxjdy/BIA718WpZEDeVrw6dhfAmBSPAxW9tjwoThOgL/W2+uzm5919j2/qv7P3nn4JrIkcZjzIXcP3ScjoRc22gsvgiRL9iYav8h4wzjOsO+x5HOezZgiOeLb/cePxmrGJ+xbBwavx/U524q49PWvaorhivFwYiREOHOg/mt5B7CH9/5MJkdPIpn88x6W9gX4/c/kpD55IvpY8s/ffcjVGo+ORDXa1YYWvY53K354M9ku3+knJzHd/mvyvIMf5P4f4/rTryaePT+BZxNfPZ0cP0YdiGEYvi8T+arT/jChnHJKtbB/5PY/rt95ODM5e+P53PzCSczPPb8xO5Y816Ye8ntSf7o4x4l2EoSwucWnes/jiximlfpyzfHzyCN/7Pvvvw/E/I+u4WvVy8K+8YJrVMrzBCjhfz3RR89T2eiNUf2rvzWNs/+HRv7+qufxRVLplxnry+1Wbt0eGRn5+ZH8dOdf17GwJxYIZ5+BLNzRRzFNn0fLExHKPosWmdCT933IUaxsLp/+IiMH8nBGnwhS9nlo8I4+gyPSs/KH/pX0xuehka/0P3zIUdKFXLFkXL3BjGl433bf6TdOV9iMLtzQv/OdCeTe2PQ8ZaeC/nt6DJuV/yG9dBXFYVqltOV1c9wfnV0m7HSQ5dnRs4VpZEZfIeyUkOdeiBwojlRmtVhIp7ytjpv6HcJOC70zdtN3JnAy+mSBslPCF6bHPSBmTByZtfW1fMYyvayOmckXGjst5C88Es/GXX2CsFOjTYzhtszVF4dhZYuruY2lkpf7leS0cyLywyuyzIESIghhCj4/jYP/M/Hd5MoRL1POjkKFbduCHhHHyuSfvisPisOwMkuvcq/z2bR3Q8foV5FuNQcljNjqF1wEh6Oh6DDR1C/YjbE3vtODzMy+cLwcDIeZA6fD8aG3v8QDgnfF8UKf8SFXWxwSw0xn8+/W3y9lLNPnTcbvMM468MjQhzblzcdBwjoE4+UKAFR/CajQQb7Szzb3R3Esd8UhQrX6MGGs+3DXQFKNE67EsYzi8IA4JEaqVCg2GhuFUsrwqDh4d4+gCYdsBbSOJYarALVqBaCp6l1DcVxEHFBzxKEF6gDV7SoAxAWKw1vikJhWZul97p1H+xUpDq7EsQNvf00kygDlzkaYNlzbTsSGo7sAb0n/EweKYysUocHHNah+r6E4PCYO1a/s5V4tZSzD24ljB/z7tq0lKhAiHXEkwrbQhNiEWoz0N3GgOHjAHxScc/sxgF+gOLwmDolhlZY2cmqpw8uJI24zRmkLhgRrE6T0sGWpQMLuZ+JAcUhI5y80XIUDFIcnxSGf3ZvJq6UOLycOKQ4mDqBpM4kz/Biy+5w4UBwK0YJNFIcXxSExUumCWurweOJgYhc+CObApTjcShwoDs19caA4cKnD/cShReqQEMxBC1Qh4VLiQHGQWA0SveIwDDPlFqaB4vDyUoe7tWMclzjkcJQMVSoxwhzEY6jENFcSB4qDiwOAGHHE4TTHmaxLZNIpA8Xh2aUOw0q7VzolyzwucZT/MzVVBtgknHUh4TrsUI6JwxVxiGgNypT3iMP6uOYe+YxloDg8utRhWtnimnt8TBnHJI4OlbLaK5BwvgmVkHBljwPFQQItqMUE6xXHy3eu8Tq3UZAFjOLw3FKHDDdLr9b33rnGR8s4JnE0d8sVOBBHvSESAEOEu7E5iuIgkS2AxzbrFYfpXtwstCvr/ZJMzSgOry11yEnsu9zGUiHrEuq6cs9VFfoJyoyyLna8Ah8ilGHicEEcNFgGOCC8Vxw+9+ZbliUb7teyXUFxeGypQ7YpDXkBx0q5hGkax19VEdGKXGR0ir0GrQBhDBNHn8WhBqO7Qcp6xOEuRruA9zrtCorDS0sdhlkqvMqtyTA5+D0OTj7AdlDJRMTqUJctOCaO/ouDi8cAWxHCBisO1QirdgXFMfiljmI2bbrTpqjx1eD3OETUebqmFmgpb2Di6Ls47GgFdr4nbNDikJjpbDG3p9oVFMfAlzoKluFGm7Kaz1rG5WyOcl6G5uFQgwc/QS1kM4aJo9/iUFYeFuwyxKHald6TD8UxiLi30XidSfVbSIWNdpuSSRmXtTkq/BWIC7X5Jb/DxNE3cQRsIeGMcfIJqrF9IYRtiwGLQ9Xv+/VXg25XUBwy7rXNUbD6+9/MLK2pNuVyEgfjfEdGjsNl6Kl2ZRMhhIaJoy/i8Ec7hDkTfoDdmPwh5I/SQYtDIs+oQbcrKA6JmdloLFn9bVPyq6vFrGVe6rNj/Z0pBye7ALv/PDgot1qtKcIxcVxcHFDpUIsJzprqJ4Bte+DiUO3K68ZAyw3FITEyMnH0uU15p3bLBp84mvDY7nyzDa0wJVFwKBOOieOC4rD9oIgK4fxwSeJQ7Uru8tsVFIf7bYqbNys+aB6ulot4sxkjxN90mNIwcVz4LueBkCLM6XDIQbUqxHVxXP5ZpUBx9DE3rg4+N45/FeTdLG2rUYYtOGPUdiCsA73xX/buwrdtJY4D+D1sI1UauQ8ycKtWHMXSbFX0IF1c7ngTPGZK9ETTeBEFG7zzlW6NPYrjR2Omv+0t7Y3SONw4T+/38X9wZ32P7wZ8CNRvVD7qev0dlZJS6bp+ee6VydGj/F0VGK5AcDQU/Z2fqRLH9/PgqOuNwnF4PLYhbvVAIy+5HRhwO7E6+OPnv375dRedeoPg6P7Bpl/e21v/E5BHZhvqSgOf9OFQ/cG8eZx36GC4AsHR5f3F4UaaRNcBeRg1AIw08jZvz1Fncnm6s4t5HARHq6adXFD3SWP76u1y9O6bEH0INMIt80mk2vqGPlTdyAnOzMtDcPynt/CNqrt7++r7sft2NvpYPRjxq5OuvrqK13VAnRlBDnBgwzIHwdHiMMXBQwM+UZ7qqevPdk3Jfh8CjRmU5O/rKd8+1/ey5FDx8iNSP/zwRdlwRVHCkUg0FhPFWDwaSYQV1EEQHLz8489EI6XiV7rpmOIuaXbK1Vs7Nnqn5IFdCDRRvpNDtTodfT1Dk3LHl1SqH8oOJGITwlwwmUytSqaDc4IUDXQmPCA4lEBCLJV/OlmqgWQy7fUIUjwc6J6LEdySvHtfT/XxSq9r3+5mf2xIDrX/yJCrx2WrxzV0pF+V3E4f+H7lGhglIXq86Uw2h4nGEZrLzgc3CdEA2mgQHIGINOdNLrxS/mQxm80seT1iQnl+ttnpq5h2ierYge8299nb/N2BMVmE3GjOoF+VP5w8+p2to5Mfzsp+R7tzfLjC7xQMRIXl5AJ5hjFMOcwIIRo7vzQnhtFGguAIxzzBFaq9Wv4YM1KykFwWYl8/ryjkLN8eSZ0d799pp398VhX3+BBojuL2S6o6O2FjVpUlf2IEOYvPt5Wuuv3Cs3Q6r+t6/jjF62jGYsorbVx0QHCExR3prGYw/Dp6fLVOjh0/feHi791yf9vgsH+gCmlmGGKjxQIenbE1OjyIugAfOl+6fKVgFoqWVSzoFZKDUs1gqU0xBW0ECA4lviO9aGiM4tfRvL5WKaZZuPzHn391y1Zf36B72PYbVBD4Xzj4xV8X//7Hsq5eCoUuXS2alfocFBNjMS0kUPtBcISFYNbQMMXrcsO0rv0UCl2/YVk3/ymaQSGCugUAsU239MLl67dDq+5Y+nFcAaWaltkUQ+0GwRHfcZcYmOJ1jpvW9dCqe5euFvRjRmZZCqBuAEBYWFo0jpvW/RD3oJCnuBLKjFxQUlBbQXCIZ7MGoXg9mi/eC3EPLfM4JQZJeiIIAOdFdqxoBl40rUch7idLp7giijWWFNqaHBAcUnDRYBRXQM3HoeduF3W6OtWU2RRHADgtviljEMr/Ue6xSbEdTUsJAdQuEBzKxBLTcGXHzRuhF9bSnDKD8k4fAM4Rl3MGo7j+4MCknckBwSFVzg0eHFdfDw7e6UvzCgDAGYoUpGuT+VS3yv9R++RITqD2gOAQl7GG7Rx/Jc0vFfN4DSUkCckBHMK7yZi8mIe7H+LuF/MUV6HhZRG1AwRH9OOchu3pxesh7mohjznKyIonjBwGIDf4yt8l3rZZ5nFcDdPOvxlHrYPgCO/IGNgezZuP+ZT17dfWyBmZh+RwHuQG32t0Z20bh5mnuCqC0+34byE4hLTGcNXkKDxe7XM8KasURu56AsgBAEhLjLzevBUf37jxuFgtNziysDyBWgXBEd2U1XA1lFeKVdDLKoWRFZjncAIQg5iUn6cyTZMfcquOLa5siqAWQXAIS4Tg6mher1wpjPANNQB0UtRLCS5D6fHjlOLa2GImPYFaA8ER2XRXY7gGalcpjPAqAKBzEryX3ByGM/PeMGoJBEdsOUdw0yghwRgCoJPCO55quGGUYo5lssEEagkEx0TZYJGjuD70X/bO7jeK6wrgUjawXrxSUsU8kBDWwakiUWqr2IpaGksYNmwiI8JD4KV5iMILEn4gcRo1FeqHhAnO7NyPc792z1xp/oC+z+N10/xjnTu7O94EMLPeMpGq+4MHz1nbDzOH35x77mFG8NXHIZUDdbJkU6ycoChG3ws5WIpjMF+TI4jj0cVYgpy4ArFYfgCCQF6RlJ6tcVM2EOgMUpC8Imi0QZ7DckAUIZ6weL5RjiCO/dWMAvdAKpB7YRiqiTa8Mqmqr0EaCOxtciF5VUT/FSKkRJlFNsv0eFfFRHNOjwZx7GgN3MO0JiSzEkhf6X4jQqxaC6ZxJ6RzTQTun9UprwzCzj/NgQAOyI1rbEofk9a43lw3uyCOxwNNkHvizb6NGkMEY1gy2MyQV0QKfBgez1EXYWI0SrnkVUE5fIUwTSVLojiOVRFjmTTzVclBHJ2YOuQ5ODgRJf3NTSpoNNyJkxkWKzKlZ2uZAwsEHg8BJK8Myiy2tq8kGQwHccaKGMmAzzXzHMSx0bMTccQNZzgZKKGjyFGtZXVx8IOonmmOQNiJpankswBgcqQ0xjBSZDUqlfLv5xJHEMcS1Q65hzoEEChl0SHlONs0x7CGxUog4BcqFUBEGCMKAARgTvGhSnJxzLMVGMRx/6Kc9DgQuJcGSo58VqQIe7L/b1w5+rUq597/hRYqKPlzQA/3SEM1cYlSmcqyTKmEaMrM5LsgSVK+OtedLojje0408GlwGl4VEa3Vntlvbm0dldlzdL8C57Y760e8yO1Gd61T+wuv/H1OP2cnFgE4o5SSxPattZlKHNFa5xGtqSbeItajnGY0cikM5hnkCOLYX5VOw1jEAFwaRg9hzBju4y82CPCaFyvvbHeWfWY/hxvd5fAGyGNzZWt9/fqt259+8Tw+/fj0jW79b+Zdi+HZpYYhKlEeR5nxSCkP74KcyxzjoURlKiJC9Of5nxJBHHtDnhHBOUpKEo8aMfWFx2km+dEIUuezOd7fWu72Lt09IrPvvt3rdq6GquM4XLnWvX73/EKz9Xyar9+5dGN9q971yv6qQf4zDGPO2owQQs1YFfxoEBIHqZpn9iiI40ksothoa21CNClWgpKXFPWHJjkuyfzVYaz4HPkzgEGnvs387W7vo0/aR2Z2++at3vp2KDpm50qn+/bNZru9eBTthYXbve5WrSMcSwp4iRcEI0RZS5gxhTAqAioRqZtnaR3E8V0mMqscM0byZzc1sIhzYxhjJPOLREKoHF+4aZB9v19XBl3rnrnTXHhRZje/uN7dDjXHMc7upddbiy+k3fyit17nauXJDvIRRUYyl2XKMf/1bKBLMCXzjI4GcXSIsFTwqiAiI34ZkyXUGPlTe4Cta5hjq3vmk+bii2nePNO9Gkww89k9vbKwWIXW7RudK3V2RmGShYYSawk1AMhnBmnGDsg8z64L4ljTwlKQvDoIAJJSrax1mhqO5aXDuvqjb65fv9mqltl3Plw+F1Qw40Kl93lrsRrNWzUuVjqjziigoUlmlUF8yhqI4EGcHBYBz3RdgqavD+YZdg7i2FjSaNlEHNNn2QMT8KkL5COGZEopwszkAoK7uFFHY/TajdvNqpl9t3stuGAm3u3eai1WZOHmh7WVHI9eY8gRkBFrEzr93AfJfdxjGNWUak3GaK19gBa9OywxVqdyjmeABXHk1Z/JDI6R/rR79ITRAWWG44TDBykhCK5JYjOiTfFBTf3Rc+unfeOuGitn1kLJMduOSu/OwmJVWpe6dXU5ljKBIKnqWyqF4JJPQAFoDNN+TzArUIkrSNQ4YDOVx4rdQWOkEIkDMTh+Ry6I49FZRhUI8Ke9PO8e5Zk6SnII9WcdhQBeAgINVX3f8kDgyOqYH91e9wVH9ZJjlmI6cG75TGUrF12OmrZkHw9RcJ3ZhAEgl1PWMJQSr4YkcdTgzxACPdww7ZKkMEmiOVUmDeKYRxyr3LmUjk57opkEQA+IVGAJZ5RMvKIIpYz7yzF5jiMAoF90EpqH+zX0R6/1Pql+S1y409ueIbMD7y5fmjq7l+/5g5LmvZxpa7c/712rZa2ycZGm2lpiytuWzzxEVoyEulFSiqdbpcb4kIQ0PUiFAMkoJXGUZeYgPv4TL4M49gfCORbHhEkhRJoKAJGiBME044cgiByvdqoTazPvdkQ8ND8IQxObacDhy9+S7ZxeKe+Jrab/c/ny5NhH8kD7MLNXrq/NkNmBq8sfLRyevAtvnJoyR/vkGzm/aU9FVnqdd2rZih2wzBIDpTaKUsP5O542EsE742mQx0PuPzAuitU4k7lKBjEexHOMjgZxxCmJlFM89Q6QzGXWUkQd7zQGT495+csDXEpGipKPMAMCy+uIxmWWqaWXP3f89uI4ddvnP/hyc/PLf/z+Qmthksh/9JE3mociObM+Q2YHrq5/XKqiefKr3T/cWyy5t7mb82B6gGblw3rEsRQnxBzKAQX3tzCnGQKOGmzPAs3Dhs9jUIPBiSFikakmkUksD+Z4eGAQx16cqphixnD0DLBIucEJlaooOTGU+KzXq3D0AJqiLeoIm6heIoIkyr720kuO5UuT3mjr1De7IzZXFkaR80Xkg8Nsb54+rjiCOFqnvt599fKUOD746qvd3YdT4mjXJI69VSIBD5coLLOZowYF8KNA9nBY/BiTtLGDWMSMomBJ2u9t1CuOjY2N+wWP9sfs7e099jwp+a6k0+kcHjwpyb97L2d/xKP7nvwX1y2OJxH0+4ZbBjxneEJRNdzUYIRoPDT4gnEOyahTmXUGAeU4KOnOWg3imCT2r/+++5edB99+vbv75SibF84/+Oabn4ijdXxxhIrjZ+Jon7xw4a9eHLVXHJ1+OlEEAHN966gs1spHg7QxhByJKW0MSnHo1GVi7gmwp4XgjfDZZ3/612fFP/y1tV5vyfOrkrdKflfw75z3cn74If/7nzE//naKH8fBH0a8957/kdEPv1VS/v6lnF5vbc1L54lXjJdLYRevl/+hODoRHyRgxuIYvDKwcWOIgII3Ggz50RTXjemkn+myZYWpvni/torDi+PVv91rnnywu3uhWYReP3Xy5J9fRsURKg4fuNf69peoODaWnOAFiDqzippqg+ZIh8Moiqz5L3vn4dy2le7tGXv9SZlliktG6a4zWxlNVvpuUXJTFfftvfeq7R6nR6mukgkSAEEJpMU0lzS38fCOR15qJZFgAUEC55C8l+nY9nfc8x4AIi2JAiiTEuPgCTM8IlVo4uDh77w4OBA536oacXD+SIg/PLAYSUBe2GeEBLADlcNqKoIvET7xiTtee+nUy5Ow+yeSUiqdyWblnJIv1KDWoBGQCcYI1wFhZKFpmlqlUCWv5GQ5m0mnpGSC+AYkA5AXBZIhcgGl0BhDg8s+ohSQyaLE0dsdCfw2HPUb4hCPrAqKYuSZ34IQfvvbkOhsDjpxB8mNDGkALHv7oaVMHDAG9/SRDv50n/lYn2evmzhakzhAFI8vR+J43rhUrCiGYAn+EGkEnMEzvng8GOdF0X8kHKCAOFg2InD24uglDIAnDlBB0PAAkiApYWo6kUgUpVIplS5nsjmF+EDTMOHc6ZdO/8//YkoFV+aBPDwfyA48h8q8zP69xDSFfE7OltOpUkkqktc9PUUEBzKBjEJ9coCKpBdwJI5tQf9vBUscgaGVQpQVh4ehugFnojiEJe7wxYYFXqRVq5GDS5o4aPGu79E9j/9qpm+3JHG4iQPoBHEsfeLY/1uWhYpFOBL28w2d1Tb3xE0Qh8jG4+x84jACxb79B4kqzCBBRxPTyRToQVHy+Tx1BMJ1oOJ4qxoPlp56ppktk0I+rxDkTLropUMgOv4hwaT7wEEopNBIMr84BtYxsRGRs8QR8oMsRGg6dnr1rKNgxBcSiTiC25Y4cYA4/lgrjistcbiJo3uIEwP+WCweqreuJf/QUcJDvJNLu8UYlvVHAtac817C84cgVXR3k0xB8sQkKTMkkqVMLq9qiIKr+yFaWApUHG9rbc2lZkFVtIKSTdOhzvTkJ/5Khzfd3UYe+c4vH/7xN6sLB/qHhljWEkfNRll46/DzHjL3hyNxPhD1f7Z3qROH57qH9vypz00cV2ziWMdwTCwihMT62jh+7MSJY8cdqIN2d9Ef4W8/NHCI+AKSBQw/JkmokOUckQWCMYC9JVogDrQArVcJxRoDYU01qyapxBQJI6+deuP1dd3rD+4n9dYBEEfcEoctdltHJFFy2Mfxh59fysTxscG+vl/duWfP2g43cVypiaP3sM83LATE+j1z7NjF0+fPn754bOwh3pE4AkHm9gOr35mcnE6kFXXWB7BmT7PFcekfVedhqQc+l2ast99978yFN5NQdH1nzc37D4eGGBaym13WsLbOhXPn319g6xCRx5jf7l/KxHGXd+3ap/+855HNnW7iuEITR++BlREhwC7QNcdOnBqknDox5kgcPBf3fbDuE1jX9QpGmj2tFQfSFLmcLpdTJSCVSkkUqGVSJKkoZfKgjuXiVSKO99+o6EAlse5wKBISRT4mOBHH0WNnBykX6m8dkWWCv+1eysRh8NBnoH+7ieNKTBwD20Z9MGO5LlbPBM4eO+pMHL74kWtLWKMstziQlvYWM1lZzlLkXE6mKBakIJsrerPLLI7Tb2iUSr7rt0wY1gYMxx2I46HjFwdNTh07ytchwIrxJ7oHli5x7H2ITP/6w/+DgYqbOJY7cez86ld+2Gy+/foLYzYcO3lm0OSMbeQQhWBA5DnBF3xGbhdxpBOqXpkX3YDcjyveHG4LcaDK5G99cRYWKCdvpX3gOHF+0OQXJ4+NLcQLr3/vhy3gm1/dOTdx3Pm3zzy154k+eMhNHMucOHZ++Zvf/16zef2VYydsOHlxcIaLNuIQA8E4xwdEvy/ehdpDHLjgVQZ13azI1inKonG9WEbtIQ6cGPX5OJ53Jo6xk4Mz/P3kiYU49sprP/he8/n+D8Ecc2eO/seeP6/tcxPH8ieOnV/51i+az0v2/KJGHMd5u6tQ+4g4IGa/o6O2EAdC5WRp8h3CGouuuUx6k4X2SBwazo4KIA5WCIYciKNG6/Yb8xet4Ftf2TnPPI7OTU/tebzT4yaO5a9xfPmb3/lxkyGBw5YTjSQOJkJnKnLtIw4No1LXylHCEzP8l3U/wzOTeay1hzgquVFBYMG+EaaxxHHxpN2mfP3Hzec7dKwydx5HH40cbuJoixrHN5vM62NHx+w4fvK84xqHGI/Rq0iyYV/biEPDWE5OT09755JImI2SgrDWRuIIUftGfE5qHP89aPKSTY2DbOtrv/3NpvMV8MbcxEHvHr+u8wpMHO5RlX3XhjjermvW1O3PHj9qM2902M8G2k0cGtLtwVrbiCM16jPeRCHGiw6OqoxXj3nZaB2u6btkM0c9fXeRCWDuzNGWJI61g78CrlqOeRz7Dmy7ZoQTHc0U+AUdQtv3zHCMpQ3W51uj4zYRB4AWRqO0R3FU945YZysPM6KTrfPSIGHcfpYNH43cvG39/t6lOVcFOjiJHJ4WJA43cTxxJ+UzVy154ji07o6EnIxN8I7mJp489Y9/nDppN3OUFYZ40Wgxw3fnl0cc7Y+NONSpJ3ycqd9IwD5yHCVb5y/2W4eKQ5iSi59YfWCpzo69C6ocLUgcbuIw+Y9fzSSO55YmcRy8pqTqgwkhygds4fmjY8cIY0f5hb3BDDOsNWYZmSxqSGsYVxxaqrTKfBtFMeJgDpi5dRydSSTerY8j+Z1tA61PHHRxzL0QOZqdONzE8dRek//sM9/cP+7905IkjoN/VXSMC/f4ocRhDw8nYD60cMcURWFYEGe+GJXTizCHKw6UlrRVoRn/DvvEpmwdK3KMpitYR9Prmj9c6a5JHI/s/Rg4wtO3Yu/eT3eYffuhvXf21SSOflcci1rlHNhkQa1MTbFpc22xdNO21lzKbd81io40lFgBPbQ5iKFw7dFDbmUBlxI5hNpCHMiWNhEHQqmkhlawYvX0tDAvBpoFHx2ZIjav4Mn1LVvlHLB6tIe0rIsm0GbtKucN9GyXmy65roqns9ND/6t5xFMrjm/sfqC3JReYlsAbsneFv0niEPl4JF47XSm68q2Klk1ISgtOcntLc4yx/l9eyeeVnAlpG0CDPqyQprHoYF3xLJE4kJKUChVtVbR2YSTwcfPEMZ1FcD7MNfuavnDtjeCF2d24c/6+7fni1vUN9GyXjd1bwcWOL5TXs6UV17ta36VhTVNLpZUMx1++NMRAKD4c9pP7WnFoWENa2ZvMqYjQpPUsqiuAgRSIEiyUHKwImi5JxWSxWEwmyS1Jm1KxWCpJUipVMkmRpgRAy3yUfCEV6Y/SH4R7aBSNpQvlqmwMwdS+oprm5YpDzUuJjIYweiYaqEGIhGE5x+aI48iUpCIN6cV1Tb+S2+4fNXBx05/sdq/k1gi9u3Z/zfFFpz2eW3tua8UBlVskXdNQriiPCix/+dYQwlVtWERXgJsQUjPT3nROQ7ih5DH/KEIt5P954aULb6YzhHIa9v9i0qRoLF0Mu3hhBqup2jP7R+Ce2ihbpjayAN+ATSiGUwqqzQu3w1yP45+SN6Mi8iXuuuTNFKmWA2IT3MH6w2ukHEQOtavZMzru69nR4Vwc2/u3uDZohJv6b+30ONfyA70tCRwkDmtauZyMhS9nrGJcNRauiz73oGF0FcIagHE24fWmcgUVVbGpPdA0MZMkMmTPtXjzFBGHlCKkM3IuX9BQU8HVe6uFzTtMHybyUuhi5yaQVixKxFyyUg0mmsMXpxUKf/vLhTOn3pRJG9C9DBeohSX1o4jPujj94vOGKMaYu3MpOllEavZSght7YKziDM8XH+x2a6MN0fvA7q85FLPnuutbouWBWxJ0UqdXW8OHg1ygcapX7/BBhxa5uU9zd2OsGVT0fFaa9kpkt8qrNcrQaoHPd2vFDNgxS8WkAU0Sci5HbkQUxirnxvnws5YcR+RGacGif7iK8betvw+GU3IUutK5VKxJQOUsZU4ssQAJwb+2lPC+fJoMVbBmoKdjUX7W28kz4eGIT2BC4GtWXJw3uHCEW4UTqgaR4+5mz+bY1e80cniu+lL/LtcFjXFTz9YfOXp/PSTOPdCSCsfdOQgceW/l7mhoSOACfMPSYMWQcb2wcEgU2Xl+Aeef0rUZcAVrhYxRMyCQoJ8FYLyRtuoMkkGRIJE0oRRmdt3avfUNo8ahaUbRcwaiHcVYoIf+2rLxa+Fm3qWJiwxSZgteCtxXH0zN/E/GI9XXKcu1JdVqoQOh2RqpWkstQFKSiuY/SJKsv1O6pEGfTues4qiJnh2aPS+PJ7KA41axYDAs+P3ky8blwbLhIf/EaD6dRXR+atMjR7fTz8SOr+9e7waOxseCN36hw4E3Onf0tCTODXx2CkYROFWu3MNxwhDDsQ7UwcPcL9GAZwQhaF2htE4RLlbWZ310k10M5+WspQzYLcmNNAHI+CoRDMHaD3EVTYV6Q5ZAaxyzCxxwT/dOCfZIusuXy/S3ZkxIhdNqV1v0dVjAS6q2oUnsQ7BGI8VqNQXihGSUTS1kGinwrGBSAcyViaF2O5usUsD0efT2JeKo5Ecn5r6lIGxOFHzxYCQS9AmC39wcsG0cpA1Y/Hg4xHLDqXwSg52UpkeOLT0P/qTDY9+zO762recmVwSN8m+7+rd+rdPmDe7s+OKXeja05N090JWFD0bszVWeiYqsMBTnbdUhsoDIh0J+X5j2XAauic7W7acTR3K6NhdcoVQLB1VP0DY8B3UEFWocuWotgX42wy5LahynXi7S0YuszEoB1rXb4PcaAoL/TWqjwUyj9nm9pl0dB6GaY7qUauXFKJoW4QbWAmXN1F5UQEOmFuhLquhzoE8BsxIH1rui8x/t4gPkTef9fuLtSCwcjjOhEG9crH5h6EXrh4IiLOroVYuIjlWmPjvQ9OmN23768Y5OG218fMfu/vtcDyzCHPf17P7cTzZ3XFWXjs4f/XRrf3dLvNG7eioPIxWUULSVURhUDA/7/Ow82UEksCxHYAMhhmEEMjaJxYLhsMDDM2J92fBi9BmMtQbAFR2rCh1qlFNSETCPl6bJrQwXc1NrDsfieal3MENtapGjCpqBVivK8FKp5IqUUjkrExQV6zpGzqeca2h8OhTl6yU/OlIkMOFwOAhXBxcYxi/CVhLrWZ9WSGIMJ/I8x0zjUg5chrLNPbACbNnQc/3Xvwg9ux4dX/z6jT0bFle6c9myvmf3jZ/bvqMO2790/YP9G3a1ZmbdwXfSUOJAhaIqj5DuybOiQBJEnNhgFgE+5Gd88XA8Hg/HAKuL2g6v+WhoehxpDoFdMEcUUS1wAFQVNXkEjGCJQ2sbEL2BWaz8UkFqXpGBbJr+g6j/ZA3jCnIoDk3PjUzYDh9hQ4RA5zFIH2QzCSGRwlKsBtmOQjgYCTNGCZv1T+qpDEgdZ703N/2Y3W0P9PRvvfVLO+rxpVu39m94YLFzDFx6t+za0N/fU4/+ngfuf75Ff3l1Igt9HcsSliIcT4e/AX88GIxZVFsQLwBijBBctZQlOBhR84GJEUXXnKFXCtligiT9tGwkfETShzme+VCeq2JIxBx0ERQ5XUpJyWQmj3TkTBx4nI5V7OAhTFgDyHAwaNrdTwmRRwkMLagSp5g1cDHQpafLVBzp3NTB5sfpm3Z1L9Sz+9fvcrVxWW/wvbfdtKUeN23sbdkiHJOZNO02mZLu9Zm9UySEGMGk2mBg6kAVs0RqCx9l14xjh0MUWUokM3K+Jv9fMSe51YxwCnK2lJAyWgXZigMYz9DjKvZUS9assQV9dDwZiYEuSBSJxOAQrihWx5XcKq1sJI5MVl7din62YM++zT1D5UNJ77qMXDI+b0r6tMDxtfXPuYAsGoYXJ0YLurNBSi6RTEERAF/hZ8eiSkXLZ4qJtIbtxUEjBxtt/Cg5AAPMGkKzD9xyo3lTHLkSnnQUOVxc9q1BKdkSxxTD8oEWMOFLDCIn3sgXE5kCwvgjcVo9wlgl8SqLkb04NB3/awKs3jjV2gZtiLOtzo3kTHHki0hZ7eDAiotL77ayalwGAJdL+qS/BeKAyuia8YoTb2QS6QLG6KOzHgfCmpyUVGQvDm08OzIhtkLr3BFLHIWkMv6OgwvKurjsu0NXkiqGPixLuIsXA80nyt9d0Z0cj5CSCsIfsYV8EFZTCQXbiwONS0MTrfA6NySXjeKompQHM/Yr+ri49HYXB3PmJ15Byt/DNl8cYtR/N3LgDVxIluCFNMZb58jM0Xc/xOKg8ye8MrYTB5ijeCTKBpoOG0mlZUscOn7Hdl0OF5dDd6h6ztxfcTK7gmt+t4z6upx5I/F/7N1Xc9tYlgfwrnbpcdMkPWz6BNj8avmxv8nkz4AqTZ5x7HaUJ6jKfmIVZ6hVyYFEqdUkEYhE4JwDQL6SWqrrqGRJlvcDLO4FyKYsiWp7vRx7fH+dm+zEC//74PLg3A7g68ZG5dnao1uNerWyBO8xCjSPnRgcgEY69dn/wwp93rJ70R0w7pxYcijKv2qcwjI40NWm3vJlKXqSzrY4R4QTUGx28LVzY3229igPjkf1xfX3OzlCkRxDgwNzZAQfX798822v0cVxhyBHvh0T0Beq5DiB8uu/jhFBFKoCNs9PX3l716PoTZ++fsrmce6EwT1IVkoIr6kyW6/f0nOrjfc8OVighezY4MDe4zqxmCY9fVl4vS/Gh8/kmIwRcsxJCYCln6iSYzjln9scgGUdAoH8qek3330rm8HEwyzTUv48y/VzZ1JXNllnfhBEiMeEA/HUBILXtFSt1/XCvcbsMrzPyNWAHRkciBiHgWsXUwzT9My5vAvv+qflp3xZfMEqP/o3zo3pcxoV/6Ak4wAI//7rj4ZQlB/9fUQAFNgRgcDTGwuX3+ASvJKTFcb09MLCwvRnly5c/d3ZqbGJ8RXTl4MrQj+zTcvueBEyOIyMpBmxN5jL2dB7GvPr8D5DsmxORwQHYZilltUJI6kbd+3Wysr4xOTpG+fu/vbip5flR55XITflMrz2yl1eONfiCDnum/I64Na/fjSEovyyxSBHSYeBgEb24+npm1/z8rsiyHuSMjDy57svnJ2aOjW5YqaZF3NDNzghip+lwLEtJySCV6CejNkcTrC0tFxZP6AoOPolx/q7qlJZXoKT8OgbloHxK8FBFKaW7QLrf4hI3DAMXecYuk7SGh87PfXjcxdFAVIswc1yZb7eCt6cXjhvFblBZDnF5RD99ZDHohTlv/4+YOUNdpeBZIRjlxamhw/jKC/MosRYKEqMaxfOiQrjG5oXE+O6bhicIRQQSsQxSDUnYggH6O7GuEHDU2N5vTq7+OXmAbVHj/WemUf1zXfWl4vVZydmh6E9TXU8GBwsdjQnZAyIMZSvIQkoP01u6DKa46w1PnHm6fmr1y5+WiyI2AIZHh9yFT+bXrj0sW8g5JBnGhAIvD3kjBVF+VWTgYAsMYlAMnhr6rrIgivCobgQ5O31gnT5+m/P35h6OtHUrCzmes4ojnmPy5EanDNEJMbLHGHUTTSPEwzgS1sbIY9hiOX12c212urjg1Ybd/SeW43a43fWaq22OXtSdDC2teHpB4JjLtCsLmPAWNwNvY5j244rhx/H2Jv6I+cMiApE50FqtsfHpm7kc5iK5ZmelvEhHBH9Ny8vLFyZanEDQeB+O+AgYfT3qu9cGfI8vU8gEbQTRiDEXF9qPr37WVn35uQ3JMJAXuQDRq/eODU2ObFi+92IDJkYxXOscX8YBUV+MW9PzgT042L0FWOelhJBHzO2n+8YOLRbo/pl7fGMMTP3ijtzes/Mvbl3V/6vfr+2eVKziW4/31jmA8Gx+qSdkeB35A6R+DDFTCMxqdXNBRGVc0lI4DI+lrp+sjIx+fHU1UviRkSQC9kLjGI5Rak4feFUE/QisZEHbY9DiZrHzhBUlF98QVDiUbO3NRejoXOnOXn+7jWRHoMuX7n229+dPT81Nr7SbNthWSsbnCMUkGQ4xBD5jl1yxPhhW0jSEIgB8kizgEEJDe35bseAISrV+dWZmdV6be2gWuPRLb30qFFbe1fVavXVuVura7NDkyPmbOv5NmNfBcefboecGHiWZXthNyY5Nyzuyr3m1C6lbtAfSkgod0DkmkRpq7ky8fTG2d9duH55oa8X/dd+NzWeML3cVWHktj0GPXT80/WK8q2MoIeHLYsICsgNnQeZOT759NTpKeH06adPP54cb2pO5gVi17MIjCIlBCTOOcWBmHIlhvimnSxzg0i8IgBg7Gcdy+yEjICBZQJBgQcbz7cfMDjecnX+8XdX6/OLs9VXLNYb39Wlen2x+u6aXdys127dX6tWYAgydvaeawy/Co5ZzsgzkywqEzmHROVEI4QocDNRg4h5yY4nZxIyuSjEOC8WCUMvS5oTY09PTU2d/93n+SiOz8+dnzr18YTpxbpeJj7xMDEDhtCDdNyjbory6y8AoY9129rgriUz5P4mAsRLS0vlcF1DktsW0L8pkWK/kxazNe3MD4Mwxv4A4l54EKOu71hJwJDQsvqnM20/39v5LsGxlp5t1r5bXztqj2C5uta4b+j6nUZ9tgLvLLG1O7tWv/V4vroEQxidjb2NgBXBsVibq83xrmW6cZEZB/VnOxNEYRD6birbZXKOFyFR+SqXayYTPvI7idZum1kQy7qEY69KjFLTiRkMYNkx50Eqyif2wWslttsZMDo4L3gAO3D9YjHkP4pEGJhWUpYYomomkRlwFCLodswkZgy1lMpuxd293TbDYe2htbzMP3qDYLm6WW80GvV5+fI7HR3V+fp3a4vrMASvbOw93yk+i6X52zOr1aztxIxgqCI+MM51fbeTdeTJVbYbRt0oRrkYxUIapWL/WiJGcWibh74jR1B958dS3eYEgwgDy8oiTjCcvJvGyHPdokpOXXE6UQQI5fmIw/9ijDqaSzzSPAIAgrzg2HDZsPbQ+XtzxxYUS+Jb2tnq+vISvOOWq7V7c2tDSw6+vLW3t1GMxngoTnL7oxYcjuAh+VFWgl1xiFzHtkScu67rR8Vr/dvGAhKn0O2I0adACAcx55OPjqAo/2rR4aEyQWpZniyEjyyNQeiK7ufipGUvlAeYDYuLw4hCM4m5b3YJgOyNvb2tCodjLc/Wv1vfHPIkiriTeh9UFuvfHT45hNj2i70XouRAMG8/zs+OjQnhtRX5DXEUR4HrpI48Hc52Qzgg8lNxan8WxkhwCMVH9Z0ryq//vktHXHLQ9R3NcgOxSzEA5HGovptapplkvi9OGBqMk9eCBLYWGakNiLj9Yn9va5kPP2CkPrsE772lam3u/uY6DKHvvMhjNCBAT1tcnftTleCNoQRFBeL7fmZblmnZtl2ctG9aHc/3Izhm/ZCZR/adK+rxNkI4Uhx3O/LsD6nTKc9Ny6VZsYnxf4aUaRGZPpG/JYLjAYdjPZu/d2+tCn8Bns0/nhv+X6K3X+zt75oMI8v7UuxxwFuBIMRC1A3lede58qVjsOjvj+g7V9TjbSEb+n+rOPBcofi13ytA4O0QyQGBFXNtd18EB4NjVdfu3J9/Bn8B1jdXZ75GcLzYIfTS5dv13mP11INv67ior4HY4b5zRfll8+TN+gFvJTGIoA9ZmoDtsZ0XMjj4sOCYeywK/Pef7CI/OTj2tyJIutbt/pvjqBTDCPHgiHnniuo25zBqHQ+hD9H0fLu7rYLjUHBshIHjtftvjprjJY0QRgZV37lyxHGxRDA6iABIEys0UCmzSItsZ2t//6vNURUcLRkcXpZZ3mLvzbHZKjRTQhgd7h0aPqqo09s4jBAxAKTJbxACsn5yOB3P3JDBUVHBIenizm1/w0md5EH/zciNEodRIvbFq33ninq8jcHIIFoaEdKZFUKKWh6BhLEWNTde7r/c21DB0evj2BPBYdlWd7n3ZoxaK4VvWIQwQtw50HeuKJ+kHEYH+cop10DMg4NY61T/n01pZm28fJkHh2eo4MjxytZe/nlstByb+m/GbnO8MKGNODhINYEpBw9TQQ4jxLtjE8Rx8hvE/TFxv1KgIHVlcOxqBoIKjth4uCGDo+l4bF28eRZyaOglDqNlJANNYIryr6Yx6ivwdJPT5DcYjE92GfSQ5W3vi+SQT8eq4NC9XRkclh1XqvXGXGNzfRkg7iS2kFgeIowSj/96sORQ1ONtHEaK8fEzEbNd5k1qHPqY/bAlg2P7uwxUcKDReiE+jq3MqizWHzVmHjXmqxWMViYKZ9pEMFLGYBOYorrNDRgxFroxcgaRCwhfCR1zVwSHaORQwcHY9t7L3LbzZLFRExOK5hq16jIEfsELEUaLhwNNYIrqNucwaoyDgBxhkOlv5T9S9ndTA1Rw8Adyb3RXM2cb93TJaKw9A8ZLBCNGvPmrjxSlnG3OCf4cyvF3g9KH2y9z+y0dQAVHuivuVDaSP67V9dKMPKEOieDPwvCKkkNRfvR3ngGjhxRljpNFBAPQT3deyk0ORio49J39l7kt60ljTu9pbFYIQ8+PCWH0iH1DTgJTlF+scIJRQzldzPOyxAoRoQdDO5WbHBsP+QcfHFRucewkTxp6X23tf2zNdhzLzIBg5AxbnUCtFN3mKYdRI0w1P0YkjH3NGUiO2MmKTQ5H/+CDw/A3iuBIFweD43bbi2KI466thQSjRrIJTFF+/u9EMGKISQIY2IntxQSJTQgldDqyk2N/x8APPTj0cotDc6qDtyq31zEOPTeIydd8glHjYhKYovyrxWHUqGNhoCVe4KdaB8HqcCih1yk7OR7wDzw4yNh5ISJ0K+2sD2yO/vfskmtanczWUvS1LsGIsfhDnwSmCD/7+5jBiFGUBK4WEuYiK6HQjAgKGNtJ0clR+dCDQ34Zm9tOwuXZxn1d+u6jtXXLihAQwdEixyGEEeOtX6ofNsov2xxGjXm2awL17locTDwOPakj7uz3di0DP/DgqGzILo6WBbD+v+ydB2wU17r4bSxkWzhXAf3BTY7NH+RgKSO4MYtfWwOB0Fuab5csuL3lrtp7SH5oSblFvetFXYma78u95KJEiUG3rHfK7rQz55yZIQdM0DgNYxviKLazS9GbM7uenV0br9l6pfFvTZldFbf57fd95zvnu3JphA63fO/jt97m0pkdsiRW5CsfclhSpVdk9+yt7WjvCYTDgZ72jtq9e2pW+Sdo/pKrIA6J4VTLDT8YVTQy9VEp5qwlfHH7Mva1ONBlNrVRhY3RaTEXL1yyGXnrK5F1e22tOMOpVahyVHYcZNu2nkAoGOjbZNMXCIYCPdvaaqrP6losrII4xmKWe4VMU2U1VxxAv+2IY4oQX4uDDo51craoguh8/s8vXrl+8VNm2Ih7JigxEa3y4iBmBU8C29oRDoU3zc4dn/86kfh6/vjc7Cb7iY6tNatU+eQvAiuOJW6IW1pmEjqned44Qcw+6Nw9k8O/4iAkHXmxAKWHRl4jIq9yIKMKixmrgjhQ5VZkN28LhPqeHJhPJm1rUBLJ5PzAk32hwLbNNdVjldf/QRCsOFgZjVuZK1XXYkLGXyJPi4Jfzuj+Fsdlc+ILZ1065ioWIUNUOY8qCMtAXAXxV+pYjq3tocDsYNJxRoZEcnA2EGqvctCxOme6CiBdsGAGIy5xxL2S+PRbLUF+Fsc5bsZpoY2IyFUsZBTT9BqYMwmsPBh8oyLl0dpAqOU4DTVySSQGWkKB2poqscov6JzpKoAFg0AXFBOA7uYqSBWcLRr0qHMfiwORdImDkzLiUDiNk7D37Fax/OKo2orstnB4dt7VRjaJr2fD4W011WGVzlELVgMse1cDsMKrvJu7IC3GOguyE+P+FYd73OgXUzxwxUEE0zasewmxpKvVEb+8fmf5441geC6ZHWdk5Stz4WC1zLE6hUnG1RGHxkqW54qTzBhxZxKKXKqTgyXIx+Jwjhv98s5tHmbEwUlxI+vUcR7DlYAWgCUCl39QQm04MJfI8oa9sJJ1PRcIVytbWZ3CBKsCgryJPVdCXNEBdoulnF3k+JIWObBvxYEIM+OEXUwcokwVGQgm8qxuGDEM84IJ1kAaSHBpxGGWe1BCWyB8NzvemA90u084JO+GA4/VrFKFtVgTw+pgiVmLAxKvcIorDmBEZqg4pj4k/hSHuxhrj6aKZjIVK24o3k5R4nzT8kCwHI/prAPDGqYISSnMr5V5RXZPe+jJRLYmZu+9OpBtjsSToXb/tpHu+cPWo51dNp1H97ZtruxQBA3BqqBZMpt1B+iqEMeZXCVy5wt7ntuE6WNxXLVLHPYspikW4MzWQFPSs3xL7bscCAGD1XU+LqeJ6RwrlOKnjsu8R7Y2tCknMRl89ey9TTnimN8U8mmZY9fWfZ1d+48922pz4OD+3s7OvTsrOBQBwyqBkO6NdpAhiZlcHo0zk3SA2QxDkE/FgYgwQd05c1uEyLM10IwhlPkexoRlqxYIq3rUiMuqqoI0qiqLBiOAotWB1fZyrsg+0RM+nZOXtNx7+eWX53KePB3ueaLGj+w9dqz11JnTJ5saG5tOnj5zqvXY/qO7KndGMYbVwuK9dT0Si8m65opDNZzJh7TI4Vtx2IMRaNA1No69mQkvEW9NWbSWrUAbUUNRHZQ01CGqrLMiQv/Uo+u3DXXnJCr3X7a5F8hZnk10D/ky5Njce+D0lob6xqamdevWNdn/2TK4cX+lFPq7CEawWhDR2zqNZV41xEyuYh/mQ99vJ1XiU3HgD2876pxkFOQ+JwoK73E9VjmZLNeey7AysD2hSKLAMil0U5RVoMUZASJYFFgq44rs5p7w8ZwGjsA9xxxP5iQrA+EeP/aet+0/9G/UGS5N/3Zm/9ZKrcVKGFYNhBiRZK6grsRMT5Ej6gTqE6JfxUHkCUccUyZEnn5zUUDelQ1+GfNjMSoAG0ngbF/EpRQxJsryoqIprF5krzqGZVyRrQ22fJ1TGT37MuXsqwO5IUfQj0uyW3sPN67LovGlY3srNaAeoiqKA3uLHAjxUiyO3cthZsItcvhTHHGnPHynOY6Qq1NDjHnLxdgwrOW8EddsbegMaygAqAsAEOcYTgSA5VBx5iDCwbJV/jpCc8mcyqgtjt/QkKMlJ4WZC3Xsqqkgq+I4KBBYRbB3SQBrQkyQ3Uuicakix9SH2JficEsc0XGUSVXisZjpudR0iTy8tTMah0Dho6yoaapiowIlBdBkPqorGsMXt78Rl29FdnOgbzCxqDJ6draPpiv3c5TSF6hkeXRVHH/4BqiuOACjkkzFIybo3ntCHJtxihxX/SkO/GFKnBMMzKppxA3VvbbizEMzFaRFY1ATo0xaG9QbQFUy6mAZCURNcvPmzeFrV2FBIIsp1xzZx0It2d64/5uzdmE0edr5Zz5ntSVUySawVXF0RgmC1QTzBsbp/2JB57wVFzI8lurkEIg/xQHs9WibKV7DnuxO0HW36mMBt0i0GKRzEAijvKYpKVRNjwCgLACAMSqKkSufXLhw6+Ln1wqdI9tepvLotuBsMmtDW+CsE2qkA49kdvWjgjtWVsVBS6MEVhUCGBNTeSHLio0yca/HLCXdyTFKkB/FQfRUiWOMZiouGOoMA5wTFYmlMgZ5eBoYBYAfpclKGqD01+nIUUhaJLHIp2/9ZeTChUv2APzCzIHxWJnmyG4MzyVyK6P3WpKpUsfZV7PSmMRceGNN+VkVh1saxRhWFyIzhootC8vRDaMSRlmhtpju5PjQj+JA5Ha6iyP7qHei8ZGxGP2WqSZjLPMDZE1ohxRQWUDVInV1/aqmuOpQh//050tvpobRXni7sGzFKtcRguvDpxPeMkbobHo5xVVIhsTp8PqairEqjoMlHd+GcA5oReZQec4QBD0ypms5kYUl9qeKHDL2ozjQVLqLYxhDLwSJkQ1R3uBZVnp4pokkRouPShr1g/NQNH5tXV1dBAPF5asbC9PhfnypwO8mgWUqjz4V9i66JrvvuQ0c87Sd4zf3k1mdHE/VuKyKo+ylUY2UShrEwhpYaFBUU2jYIjAvBCl07rSoEQKzweORCSdYN4kPxYHFVL/5lJhrYEyQyPNGTIbLVKgwayqjcU1xAXJ/3YaxobUx7IYg459eeudcmvdHLl7LZTiXm0vwvejB5xxeWIbnH43njlBxeLIRuyRqFzYC85kG0nuBrGWVCopjVRydUQvBUoAtKJrp3ZeM+xerx0yJkJVEKghhsvgmQIi1750Z2snhQ3EQ4c6XMzN2F4doLbVJ3gE+FAQYldU98YaijdXtVqTzQ83Atcn4Lc842o9Hrl9xuP5wbi3BB3/943e/Q/nu8vxg5XznW7Y5siOOPu8mFbc+6nNx7D9cv1gcu3YuUMbSqFWaFEXRWY7j41IOcZ7jmHjhLUYY85MzX8zMzExdRT5MVW7PUHFMjA4X8g3EhhBnbGG4aPraNSzUmLq6KFIXxPFXrzguXaB8tByfZPNBihu/TvGjLH6VzX9n8/MsfpjNf377eSqOTMN58i4ta2xKupkJrY+GMhFJ4rhPxLFr69EM+3qfrm9a56X+VG/nvgzP7CpPaXQDLs2pDDwjxGVFBYtQFclkWYAL7kgfb75ji+OLSeA/cSBt0lamXRtlC9pMRFiTE0Am3gBSf90YUDW1eeh8HC4ljjdTvLMc72bznsO7711PySDbFD/K5tfZ/Cybn2TxyndeOFLTGr6fWFwZTZF8klY8Mkf6JO77ozi66+ix/cdceru6Djd6zNFUf+Zg18FnXY4d27erPF2jl0vhDZXRJdVBycV50mBUBAuDXB2j4piZELD/xKFOUGfOTPKFiAMBTvAGHKqdqPSLQFGh4ElWxq9fyniDRhxLcSPzyOWvzscnf/3j9+384rvL851H4FvPP1dTsyN4N5mpjDqpSSKZ/kgmArT7/HTSjUiCO2p8wBNdrS8eP53m+OlTXV2HmlxzNDWc6ertGDgxmObEwMbetvKURi1YPBpjUD2klveWegCB1VCB4tAY++6xue0/cWDuzgwtcWwoKFMhoq7znoADcmvXcPa1AuBosI6BanpVZeSjc2lGRq5fXMTbK+KdPx183uGF5XhuxRw5csQ5xac76VZGbU28enduLv1hP1pofbQvs+YS8sUut737z/xbo0t9w9NdXafWNS1443BX78Yt9Q0u//bi/r1lKY2WIuAgBudKg/7tojg45uBiGBYGFnfTRH9myn/isLs4HHFErhaST5K4zkiZgEOjiYrqXGtK89BuMRNyvH/O4ZNLFwvoAEPOh6W2v1aGd9fwwvFfCbsySjnrIfXEQkwyvync5odjPvcdHGjwbqN/3DbH0487TzU1HbK9cTLr5cFn9+0s/Qk+JSmNIo2LU2W4unDJPAPiugYLwxrvd6qjkzL2Xaoy5YhjgoW4IHFwjLwQbiiAJioSUBwgvzY4BtIXX926NPLuucvvXRq5cvMqLBBclgHUe9rT538l7778EM4G0+uzx8O+OHZ08/YDj6/z0rClo6urY4tti6Z1dt7SejJrebapqbVrcxm6Ri1ciu2trBNUqIoimqYZEwxd53neMISYfSnar9B4mZVRoZsvI06R4w5v+UwcOD4xQ+kXCSxIHFFWcaM+xNat0bX0JdAiwTUcTF2Nf3Xlxp//cmnkxsVcb1S/e3RbaDaZ2k1/7969s0s+/qslkWpH98cRYG1dHTmNG01bNtrmONnYsOVp2xsnGnJWZ5/e31aGuY8WLI04AFAlgeNYCm8Ighmz/cGzFI4zFaCCgsUBLc65f+6MEp+Jw2JTJY7mcasgcYgR3hUHFHcHI5l9sVDuH+qXFjrPxz//9E8XP79Jt8cWjFWW7tG2QN+8sw+l7+FscpZk5/sCvpgh+0zvIaoGLw0nW7u6Ng4M2pHHgcHGnBcbz/SW/PvyWrtWMnGIHMMZMVmzAS6ajRwzGMYExYgjRhcl3U4Ov4jDLXFMRK7iAsVhLJhC05qH+mWguCBuTTCiLTwBTL3oEaCXmXKcPdoRcmoYieQypHKZUEeNHzja+5LrBtccJ2xzHDzY1fXs8YZFr7147GjNAkeee6EUdI6983kuBbzvYIlThaguqVBTlUUATVNiUR5wBYsDX2uenrGZGMa+EgcGKWFO8BYsUhwqZoJ1AlQVFwDHgmsMN3XhjaKPnbXk9WU47vyxYB89ljgfifm+oD9O4/hd72lXHC6NA89u37ev8+CL9Yteahg89ruMN771ne8Wzw/+960P/rqI6498LAOWeD0qasBrDQ0CxUXV5CivFy4OHLnj3EAC8Zc4lFSJYzJemDiwPMqlUxUkrn0jAoHiAUq7h5qV9FOALcFWR2vs9bIcHkh3teUjORvq2OlfcTTVP9312p7tGxubFr90wiOO57/9q1Jw672luHDr7eFHCjqwMjoqa6ri2aoN5RjQlAxAjo4WLA5E2Ak75Jievu0vcRDW8eV08zVc4HhNJqKo6UTljWYNuumjg6WvrRvV0svorFkCcfDbyzMB8n5ecyTvhwNtNT4Wx5bWzmee6TxwYvFLDdni+FEJ+PVf31/MB++9eeERy+tEaeY1t43DBqB48/kxFXqe04wNCoIFL8iep7nK9JTPxDE1PWM/JiIYF1pVHku1mqNo8LxkaZTMQCZN21B3PrV1VjMZDcNiIbD9tbIcdN43kCdZsc8bpYPcfCKOFxfZoanJXk/psrvP3R6ODE2njx31pirfKUGmYjcKL+LGyEc//uDClUdJVywxIgH3RCn7Axn9dXV1zSLKRCGqHJEKFgcZbp6mTMjYV+KYnLa9MT3BkUIXsuVmk+Yi0Fw71B+JjI2NbdiwoZnS73C+Ltjs/HCArhNYNMiKlGNOwp6N9hDIxPIFjpbQRr+Mjn2m93DDIm+csuuiZ84cSPVz5G6W7X3GUxwtQXX0983DNz9fxNsXb1x4592RR0lXiMhmNY6C0TVBWxzB3RxQM1EIU7g4EIlM03voDmv5SBzEnJimnB+3CjZuJKIpiib3v0F/HnVBmzqHNfSxZu3u3btpTzoQGYXA4rHMg+WoM2xuD7UsZ46k7Y123wxjaut9OscNTQ2H6HpKff1gK+0hzSlz1J8qdR/H9iXrYVevvX195NHSFSxxrh/sf7T47rq1lLp+M3NEXRGrKlCzuNQ9FLnsI3Fcjjq2nG4eLlgcWB6TgALikUjUhmEYluV0XXea84RYzOnPox2/nF6SQ1kI/OZrNWUxx9CmgeRDvTHQMtTun8EIm7tas9XQ1HjY7t8YsPOXxhNLmKNx4/7SSvW1bwALLsW1z69c+OTHn6w8XcFS9lYVWeAN2jzKspJznXqFlRAsFDJ+3rmHJq9i/4jDuk2/5Ok7xcznxAYLUkvi2hI+ptCAw4yW6BQ4a7Q8hxY/0R4KzCUSS6Ypdm9YiHrDL+zZd/BElhpsb/S2pvq+Gk/aPaSnGrwvN5080LmntO3mEQsuzdWbdrry5nsrTlewwtmG8NQztAXc5wprOXdBpD9V5Bi3fCMOMjzpRBwTnAULBkHGBIq6gLIUQIqKpFRzgMs0RnbzjmC4eyCRWKyNwe5wcIefhsbu2tv7Ur29j37hUW/vo3f7zBv+f0dv1yHbHO6j/sUSHyS48/8JlvYwcwy/fesR0hWk6XHqC0++ksaRRuolmVMRLBgr4uQqd/jLvhGHJabSs91F3dVIjspu4XrJQw+AzMQwLBG4bDPdanuGArMDiaxjzZOJgdlAqKfWb2OmO7Y8nuEluh+2MWvH22HbKws8fmr/1hKfxIGgS5HpCuZjqpr1m5nCu9Ii6gAWDol/Nk1pJsgv4qAlDko/QrAIkMnIwGOMXFSZMRCCJYIwnWU7v2ZHIBTonhtMt5/b0cfgXLf91A6/zX3cue/YswdccldSGugu+9aNLq3HSpypdEYIpORJV66vJF2xDEPN/sVMX2UiDmDysAjw8PlpyiTBPhEHJlOp7CxCYFGgGCMB5SERh6pKjFA6b0As0y2yZaJtR08oGNjUPUvP8Znt3hQIhnp2tNX4jj1Ht3vo2pi9Atv0uB1zeF7et7nEmYo7aHGZdOXddy78laYr+cWRL+IAgoFg4SA4lu7ksHwiDvLh5DTlMwMXKQ5kRk0Aloo4VFWJMfESegMi+I8/lPPUvKMdPYFwOBgKBsPhQE/H0SdqfMnOPS6LTzmvf6l372aXUre3/OGbeY/yo+nKBz/+KH+6oq0k4jCKuwEsZtqBuewTcVjCREocCik+DIhysgpA9k/GfkIVOVbBsJQQ9nflfbdtq92x/qmnnlq/fkdtW+V7vlbnqvyOsaBL3nQlz4ZZYvJKnoijWHEQ0ylyPBg75xNxnItMO2y4imCxYI1neEkBjjsyI+vjOmNCtNLJfGiFS/N0XcUH+FQcO9fHMcyLm67kKXRgWZfLHHEgrf8BFQft5PCDONDlqQeOKaMlmV5BVJ3hTFFWQQpFEgWGNTS8fJKDsabShEam6l+ZPDDNVXyAT8Xxh39gmJ9MupKv0MFKeSOOGC5yz7Z9Iz148Eb8suYHcVjjE87X+1mJJvtiS43To5aEFDzD8KK2bLsoxgiIccMZyMfY6DERoPzqwMz2crZN1u5ot6scwWAw0NO+o7bSJY5VcWzP/0bmTVfez5OuYEbME3EovIhgMWDujQf2jfSAPeeLiOOc8D8P6Nfbr+Jl4ghiWQTTv1cQC2CCNNmgDef2HxNARPCyG9aQbHAsG5OVNHHW9o6C8+kfqWXLVXY+1hEID4X7NrV0d7e09Nn/DXQ8Vsk6x6o4dq7Pv8c9O10ZsdMVmu8ihJYWR56IQ37YOT7IAeYFqZ89oDQT7ANxoMuRB+kv96G1BwJlURTj8bj9t4xI/kQCIUysFCTPt5wgiWP0uIag5gKByTE0u8nDN18vT8fkY+1B2shxfJA2cthdHANz3X3BUHtt5Woqq+J4/f/YO8/gJtJ03zNW+eaEaxexw910g5kN72YvnyRO3sjJ5+ZAnRx8i/FHDGXsM7EKxODAYHuootZ84l4P9tgkW8WwUge1uvsNHdk2sl1NLn+eYbAN1O23g9SyrAYJaU6Z0X+SpDEiWP3r/xPe5/luVFKsMlyZu/yXS8vOZDBCvI9sIC0AB5uPdBy0zYhs+Nh70lSFvqllP/VTr+x9QnX3V/ZnABy2NfCEagxYm/sBjeR5nc6G5vx/896m/wbFNZBleKgpcl7nXLG8KCNFxSL71HO0GvflplRiv9jfs2N9P2XGqt9tvrb6yYOdPYldn1orRwscX+ZqSDjQcGVpamLx/Nn3AacbOTMvSlSyDIl/wWsiwCjKcRAB+GTQ3PsdwVCiEs0cdc45estUoqVlvUtJSn8WwLFw18Pkpj7NsmQecHpOQoEkQ+eAAS2tIdxQc1kdWzDHAlbnPekAcAJSCOIZyfoHOK/y61/r2bP+yVrlifoHO3q6XqrcjtoCR3MiFVFTapB28/2z5y9cOH/2To4uPdA5f+0Bp/Om6hkAkCMRjoPIjOxF5ZpsGPQtdG+VAscbgpk3DQ5wkqZEyhJGn1Bl0uqLD4405/1mBxbUTewG4oBuQvd4K6Yi1LTJJgd4bKnK88rCAEgWZAGby0uYeMJSnneH1ROBkbRPvQfslf6ezv1rq5sO49jtnHKrRFULHE2pqShqLQUNCYA7K3OXJ6amZu4hmrDwJZoGC0R6m9MQk8OomuMgImNqbqJeBCzvKGeKkuwKIkw//bJkgJwWTS/ZT3L0aS88ONS+jidUoxltk2pHjtFFrKpIkkye4lfPiZKEVQWJOsg/97ByDQKdEC7LiRCTUOMHwXKOYSFxyIG1yNIv81aj0xuvJLrWH1ZiIzhX39Xzxc9sjnTzztFmRSpMLTcmS2QEdM6py05NXJlb+egmQjgQwkhgdBplaDLgcRXHQUzG/TxrhAOChDFyhH15R2jpU+kp5FC1+BOq9gX7hQeHZiU9cAhWZTMXC0SsKCLPAcA5CDYFQ2cB0A2oEJQHvKI+JzcYQREZVsQYb2hQx1jiGBFjno1MrWri9oavc+uKmle8tm8PHXH+2dSXfuvz/8LZMV1cOv1P/um/+SId+dUU1RSpaIgxCULo5szynDNT8OrMTYRRIIiJzALkeg6WQ3iD5aAPMKFhsaqomgR0SDByBEvsQK4ogyQQ7YHtjHcxGekXHhy2OOanOLSKXStARwo2AeBykmvY6PUtyyLPAlYiRGZZoj0PNxAwCZ8VsDdLxbWDhAq7T3GOEQkEeSuyT7XBM4tf6g9zI9jNtBp65T85s4o/m3kOelb2C7//x/t/71/8Y0f/4vd+949//wu/9ZtN8V/0RH0tny2L4zHCcj7HOYmO6xNzZ9+/w99539EdUUKEmo6cayg0zAMZVzgOjFiAKDcUgYbIEGEqBGUxT0XvlzoNXRDGQvSdzMqmnlAxfS88OPrYlBeWbQw8VAx4QvIACJJLXs+vefQQDYaTCdLBc5BDJUDAHJAw9rAB82ym0FHIABO66EBYYKSnzERX1WxDY5V/2dX/YC00g2P/g92dnZ0f/6nzuOg5/rSr35vK8Vk8K/uV73//57/zxd//8Y9//3tf+Pn3v//9n321aZFKDQciLQlIGPIs4ATxo/fPTk1cPX/2/PkPbt364PxZhuME6hVE1yCrqsCI2INGUVgG7nJBFeusRK2FbOhUtMTnSqdmm94u8xiyYuSdjPVuw0lLe8HBoaYLT1wVKkJK1iCQZQRYMc8LIYxkHQgY6ZS/dUrVecSxECMXGyITH2hrc4cbtycZmSBKjhxAkI20rFb+Rw1dWN/z8WopFbq+57UDB50F1AcO9HT+adF2rK33f+2z2kb6w197+e3f/PK3v+/oK1/+zZ+9/NWmea/P5a1aFrdyWASciBxBL1y5dWsp3dc3MTX//h2DpTYCyzoLaTAilqdIEcJ5RtA0RVVlwEOMUB4AI+dIyIsSRCHJOWDgHB8ZO5tudvTDu9gOg+PeiwKO5clSMbbtQ7f0vLG/V+V1LDI6xBiHM02+MKbfKYRYw1Lqk2ayUGch9rbvZffGYgPxQiabKSTbY7EkhzEFFKsTIbKcr6FGxiqv9Ows2Y0HXc5++gOuHHy8unN/YDpWOw9/Z1tLTRQ9UY+0GgYs8HmTMYMb3M2PVuavTE/0ubowv3gTmQxHiZCjcx1UDQIO4VKGg4bENIpRTGBSt+FgRoYYlQt6GQ8JGDKIytdr0t2jFByjZpDkuHf14uWrLwQ47q8sXSiBIy2POeA4+iRmaBv+BADMMyYN9DyFBjX6CIEcQDKQ6iOHioEoAJcbWMklY21JILpWBkGh0B5ry7rkkBiYB2pkGnv3m41L/nX171vz4fCw88CjA1RFdPQ8Dv7f/q7+5u6ObentWsZma0gXQD5gASXH1K0Lfb6m5j6CGNIsP0IiMAhFBAdk7EEGYajTvKmqYfoidhije1TZYLKLM+xyHIwChxwbfXLsycljhbQWXG5XLk5NLihbX5PLly8WEaimwdH3HESm7m7MFnP5PI0GST6eTMY3qiOepVDWARZAfcGKxhsikLwwhW1PJAEiyBcmDkhilBwIGRxkkRZVkOW+3TjDcbhzNVi7tOORzwsq13g8enV9rbQ8dltLzdSPeKuGFAfSswJGpczFzau3+gJNzN+hmXaDESgQOAApJQwmjzAVEllW0YiqyUBHGEOeMUmADRT8FX6WZ3QxChwoljp27Njp40nb8pvhr09NzF2/oWx53ZiZm15aDLI1lh3/8NKxY5dG28sNmCqzoptFUnLtsXZfbSUdTkJ6XXMsTRbVlxmVgOD5DRBLxKWyxeGKnEy0u6s+8yDPR/4EFtzVqOroV7/W/58CcHjceHQwscM55LbnNRcdB199sBasq2/q9tiW/m4XruFTpSmZLCzVSig45vuKcmIVGg2LDCdjWqqTLUW1RMDlaTc5D3Ju90Y+S9MgEuvVXKo6Dho9M2YUOEji9OglBxyJYH7gwuTU9NLyvS1vORburUxNTM3cKKU4jp8+dil1NEa08vqW4F3XSq4taQoGT6U74lhHeqbNXT6PIcgJda1UsI1cjoWIQsJoO1zASvkZAjW/NxGH8KOZxbNOZe1XC1FH5Bo27PylRGeQ/9zteoyDXe6BlbWH/6nzNQqSR6/5YFnd3dT1sS29+UtVqwUcBUCKhqMCHCs3oSPihisYCwz9pFtE4FhHBqTOxhKzIsGYhikuNyIcBxKynBUJjuOjp08fe+80E3Sd319cmphbvL/FybFw//rc9JWVIgDTeupDajhObgCHyrIc9q7rWFxTSEh0fqPZFkeuXRCBwaNf3bixsFDr5AIT5DH0dkbGXW6UrctRs7E2bmZ5fn7+1gdnJyP+1NWGDTv/wRd7Akex71UHHAcPdD5cW/XPuO3rcsmxY9UvyfbvamL/aEs/0mtpG7XlDp2gsONYKYHjL+evQ1c0XMlhgjiazSOarSCMsKa5VzsQCEZGVnDxE+E46INM1EBDbWFsvPvopdOXjietIFaZXL54Yc4ZirqF0eGdPp4uGQ7Njh8/6QCy+0RMCYNDE7msZ9oUPhZXMCwXfRF7vRYGYO/MLC7O0MFtzy5L4g3PcJDs4fa8VjEnQRH3Js7OzV9wg9S5mXNRhxQ+16jUaNd+nwteoLKbYqNYm+16RFnyeM1PgfS3YpXm6Qfb5VpsrC12mKFbD0JwZv5in68lJznqCZE8w0I1DxS1OKnS//EAqjJgpIAbFY4DB88hRhkmChxk7MzR0ZOnjx0fFdPFc7tz0xedbtZ798/d2JJy9n7PuMeArt9fKNVU3j19+lJqdDhRBg5byPDYSzfosQ4FbQSH7oMDYjFz9vy8I4rUWlZG66xJ35VIew9nVBw2HH4vXzzxf+eLifHJ6u9to12NiVX+ZWLnashwPNq5Vr419jX64o4171nn4eY1gbX0xi+JVhM4MiKBgbBK4EdX5/1y7PT8iggDERkAWWYVdeNBFw6LWRaRcmyUhBQFBw8Rk4kCBx679u7Y7OnTJ9/rsLWiy59yhqLOLa8sXt+SWly5OjU1PT21WAxUtHSh1zEcJ8dOXkuQcnB0SB69FY6CY0O8p3CB47g5efaDK32Obs/T+OdZZZm662gQ4RLtpgorHAciHb/44C+LYery5L1qun8/89YfPaf+4Kc/dWoqid2+4dhNzcVr1H5QhfMeB/0sx9p6otXK0dzx5jXIkpkSOAgBLIYfTXme48r88kehDxbGOjB4Ra30v4xBPDZs4jiI2cGqATkwFwkO2H1mJJXqnZ09MgaDr1ugK+cmpq8sTW1RLV25MHEltIKCGo4js7O9h7pPnBkLV6dVDWRkHxxsrFDpONhYh+c4xMVb0wHar5979v0rAutGKhgXEklEwszwv2kk/ou5vkC3b01draorZ//ff3s+/df//Yd/sG3b5xPrq14Lxx4HHI86ywwHDU9cy+GlQVYf9zf6dF1L4ZWxNYIDiLjIjUwiiclNx3NQ0ZOysOw0m5kB2kZwwExGVPBGbBSlsrEYCMiBc1krqpP56PDQh2OzvbO9vQVbK00ZWplaujg9PbE1NX3xdnjpFc1wHHHY2Dt2bGj4WM4Kg6MAkA8OQMGxwXKozoseOGbmrhSDyfnr96qJhncL4VY/M5MLIhKKoArHgVHyF7dLtfi525er68rZv3he/f0f/XTb9sRjDxz7KSEO0CdlWttR4snqf+r/2raWmqTXv0us2k5ZsxL2uYEKscNxRJwmsJmVq1cXZ8Sb5XclTJiK3jJbjBsqCrhR4Tigwrcn2rIKgVTYBFoEONjjQ0OnPMvRLRXxt3Dj3szi1eWpLarl5cWZe6UkJi2puIZj7J2hoXfCHFXVDIdL4FARDCsEjpuLobrXrbmrVbVyPZw9VdV8xsQeHxIF6hHRhhyHIg6EwbF0+WKEVv7P8+rv//Cn276Z2LfqQeEAjUk+qQDHx49KdZX9Xf92W0tN0pu7ba0+cGAxHovFPA8Lbzoq68FwHxGTUTaCw8zIpBIbRSm5gVisLQPxM4Ajc2JocPi9btdyJDVNKaHj/r3JyZmtqcl798P3fRvHHG7M9nYfHRofOlWw1XCoopccR6bScTAUHBsL5ktLUbZgeSZEDk0sCDjCcVA0hUKVKzRUqarb5587VvnDP6Dg+E8eOPbRZEb/JxWjONYpOPZ4X/NJ88DR0rdZW60THHos1h5LQgJLQmW5M0hEUJkcpWemqjsOYu6NtSfa8z44WC1iYH/h1NDI0HhqlDr5FLBV5cWTpiR73d/e2DvDI+PjyXDl3M4ZATgYCg5YLi27GThuX7lYTZcvT1xenjwXqqF2eOCgOQ5ZqchxEJR0iiql5KgzDq66pu987nmTow43So5jH3UciQhwtBxHk4ux0FZqkQWBGFz4WXpEMvSJQhscB8KGrhYXB6rB2EEZQ1TNcSAiJmOxAYDQ08FhJcfHBweH3+0+RC+tw6atvHBSrYLzm6MZjqPD9PfqZUcrwZGtdBwUHJnNQpXlq1W0PDc3sbQ8eSPUspPzzsWCWJteUVXBaibWfmcqeO+lqHIsdU6NGFkcynG86pBjQ1ElKLY82rnaynE0V3SGT43gQGyQHMUEDBzeKypVHQcWvdn5qobFfF5WVa8BLBfpOOTk4aShYPhUcGhobHhwcHB86Fh3Lw1W2qH24hkOZtTlRqr71NCgA47TglUGDlgER7bScWQccKANydHbEcnRSWfV1l9OrRSvf1UrsO4bENHpLS+WVXxhBbTFsudm5uan3czoXHS9xlJ/2Yj1Kp9PPPDDkH6aHKXlkzKtusWW3V5y9E9bVZWm6e2spdYLDjoEsH1ArHAcwXMkAtPyDtSyOq9znKiqbj3XxFUdByQonjQVBJ8ODss8SsExMjQymqKWYzZJXjByqBrodrkxO3ZyeNDR0DuFEDg0SQ/KsZkYo6BQUbsMHEhceaZyLO27pR37xVYPGzB+2TUbi2UIhiUhTEB7ogPhm07L+S2npPbUpaA2aMQYMK+Pg2rHo4r+r6DYcvDxWquPo8n6tpFW6gYHRMTISnhzx4GQANwJgpoADAkhJJssRzT6eWcMVImO4o8TJVwMeEw9AhzguHs1jQTByqG4YikvkCwtS70U5UZqaHyQavhuOGekArEIDqBiVCZoZWJZ70/SaQC79UwNYOcml69MzxV7VjXkf3cJjCfaMkjBgZXERC7EYh00zX3TGQPndLM/tcs/LfyoMZ2ja375xG312ldOjrVOipMeL4JZ293qHG2WXt8u2TWaZ8zlS83HCHuPK3McmE6OophQdCBh5ArywH0Js6wcJkf5+gSMS54lYjO1qg7QFAfV8KXuWZccSfziZEhVm3RQJ+UHKiODVENHw5PfNcMogoPVCC6XXQQHFrNX556l5Xzh3MyUc9anaB40YKIg85SIxQ2EfYnM3oRf+sISuLngUSNSttyIrvMvde3ZH/IWj/aULUlYexzuQ2/mWZVWv3nNu740g0ceNYpxSaXjQFj0RotaGLAII+wPLhe8AWCqAfKoiuMIvSWSWVmrXt6hKQ5Pw0c9cszuFW3tBbEbabh31ufG2LvDlBuOxkfidtmALjdWwUohVuCAJzaQEY8xBPmH3M5NXl9cLLZpRJ/LvTgVFGU1EUCfHFJHW6ItmeHzYt5g4k7JPKkT76bBCtqzgbDQgCTHrxVPx1JzQSHxMDS3+E9fe0QncuzzDMe+1unYJg7/Sis1yja9E5NFSGziODAWgKmqimrJjI4xRpKZE0SIMcln3ZGjlkhHjoawsenCNyyD6oOl7Ozx8UFPtCbrkaM3xtkvgunQ0hab6PW4cejwpTODgYZG5XAPmMFh5IIjEYu1Ff8q/g0w8jyBbJGF6GP1YXLcDoqyqgJMHHQJs8k2OqXYUYzOEEQ+lHj2WT84DZl1/lJPZyid4WBiz39aW/PHna+7rzzqDIKZ1jyOZukHP9Jthar2emyU4yBQB7KmUj5kcwRjkQN0FTLIQUwckiiWF65I+CmOA+dZolaNVNqDSMVLkI565BjtQOmtjg7NTkvJQ0c8bswepjngQEMnCmHLQYDpnUKLd7iKl8twsYIAb9U0Q+gvl676pRVNLG64QArSM/HkwMDeZDxjOM/8IbKAqM86FuhHP2hArFKcALb24IDLidc6Hz90BvnsX9/jPe/y20mdCWCtoaNN0t9tx7ZSq2yOxyjCcWAiApZQOGgCk1cw5hldRARJAgASIQgATP+nygMT4yjHgRArVP3l2fylocGiRoZPBeTojTFq2ta2cpCSRoWxI7Rf1EuMDo+PDAYaH+4Of8s0/8ghwhuFqIKzhrVMHL0xedWZPrZyzyeHzhZT1VhVkCyKkkwfeK+QHPPMg65tsv3vGjJzdPda8SjsQW+4eX/Xnq7X6NxiypF9PlfWWzNHmzjfXLPq2QkokuqOg5Ack9M0Fw2MpBAEGJEQRAt4iMs6DzHLQNvdnQB4RGB1x4Ej9vyo9t4hCo4wOdxoZbb3yGw7IOm0vUVjlLQtFQ73enbDK6jQxGhRw6c60uGvzzMSqQBHIEpywte2kIkWZW+HirJAJyhUhHVeKdZlCdYZqD17kagh8wNf7ur6T8Ek890HHxWHFVOI0IrKvuLI0daU8yamOCxNqVl2DkCCYLkQwq6IBBiZxgqawgJIiMyAYlM6JnTwF/23aNFABlEL4m+LLfcc/vqfqlP9SZo/GQT+RXKkfHL0HjkUK+RV5xKk/CJbp2vDSvfZiEuOHQmw4eQ3jlJuhHUmBdMkvPmEySsIVhNGHDV4NckprVwuFmU1DHSM4Sai32qAtRq6YDNvN3ivytr6a+XrEQ7u2V+EyuEvNmsRUUvfFtJ1fcJ5RsTEveQx8YSRu9sD5jmgE9v7wLGIEDHLYRJqKDczPCHEzJru+FGFZ3jZbQvwhX2MYEKgwJhVuWFpMdqCHRLNkB5z+jl8dMx2783wSprKfk5ZtlWHtDLRp1ZV2Y7Sjqw8iCdSFBs+N1Jjp4vcCDQ0vDethS/HPMNjsnFuKype2zRqrE20KHuhWJTVCEsjzApsKJBneLWW904L327MnPOe9bXiyK+dr1Kz4dmOg4mPV1eDwmx/a8Z5E2dxSOm6/LQqAN2kVRK68dWkyhneaG3OkC3LS9vpmA7k8Gf2BAVcRcx6PMlr9I00iQMsbwimJ1GUIaKDduV8jmWl6j0cfYVT1HBsIMfQe92jfgmTev3RtmQcyIQUf9SzSNtElq/K1+yiKllQoSrQcN5WVQnUC/EBxzIVsUHDlO7jNL+xQdeOc31lN3IIQJ4QuFEIKZAHhqLVNyz5clCU1RQD6LJCwm9NFJkHrFybX01Ln/tBQ8YHhnZOr67u6+x67VUHHa/27Fn/pASUrkSr+auJB1WwXefZK2hwnE7FudINIS/KjrA/NlhlaRnWyJoEl0chBAIawYgM8lIVqiyZBh+8jc7prjiWy0fcKfv409cGKzQyPvxOaizVG/h8ehGmxmihMkLtT9fAptpbrmSd2pvcO+AsQ4nRX/eREjVofWgsdYJyY6OGro2RULBCjZsAgOnlNALRoBHxgJM0ra71DNfnJm4H5900S+boKt+SkMACVlRrPK1go3/VmMGjryS69oW3Tv+nx+vrDx7vLy2sX92/o+c7rUClaXojYyt1ylIJkvIOLPxghboHy5Hmk0UEiKbORBLaHOuJIJaRCCmem7U05wHxhKEsiaYgmBImEZ/4NBy9Rh18pYbH3xv14pWAHU1W7/Mr9FazgWiUMvre+PDgZjoznExbYXJoFr2SeVFCJBCUaNAoKpZa/2KXYlFWtRTJ4AAwRFGURJMHgMtJSoTdaGILGNUPv9Ozh5KjxA6q0LRzhxtfbPV+NU9vMWmlXlFPH3L2Gwp+GpvHiAVyeANLgA+M+WyeSEAJFI4PVC2IGCLuXAt3zwwPbi5nJNil0e5U+BrcGpotyXmSGuu+NOJlcSo1cu0dpk/d8M3AUg6wuhGIA6wpK3XZjWJR9i+niidbVE3FkpjjWMByfF6SsFbPW6cZLzvaiP7RrgdBOqNCa3+65/Cur25rqXkpDt5WmiMNSBBwXm9ogIxwijQrQA6pSl2yrYHhM9RvVEXHyVT3qJsk2HqiBDnU3Z16byRUba4Iya4dFfqUMlFGYCQavnISJmr0RuAyZKvRRVkqynKCHRGVfn09SuuNaAGj+sErif6PaUajUqsP17t6vtjiRvN3PzZB1HEAvTjpC23o7kJYZHK8pNbHDTs5ThOj1S8rBx3vnh4dTaUOuXZj9h9ez0Yx+ms9lHKgd/Jdio3qbBwZvjaG0pt4QDX85Bk8IyluuScbYbBQLMpu5Iyq1CtL3vV32xqjH77U1bPD6RitcBsP/3RnT/8rzY1TWu1fTevNVkHWQBQRlY4jGPHDmlp9fiM5QrkRKacZ/dQ7x1KplIOPZrKgsUpR2KUunTg17jfTR5Bj+O6mk9vUQE/3GqpkGDzHcqzzN8fxvCGramVR1huz0SCp2ndf39Yo/ctdPf07HXSsBiELXQL58HFnf8+uZjd+tZbG2s3iBslmEYJoc8dBn2Ihk9Pq8xvR3Ag07ujU8ZMnLx1zrsfumjVaqVSlDpU9PlSDUiWNer++0aOXTjpWYzySGoFGzgzfRXVjX1UVaADOEESIPMF8LseBHFLUKkXZhki16RSwRunXXvpaIrFj9+P9nzykqdHVT/b/6cc7+nu+1rIbzdaXQdNSHNCbj13VcUAkFwytHm7EKxs4IuExOHLqRK16Z3O9G9LxzfXhM+o4lfdO9J1PUJ0ajIRGhedoQ3a9A5AlBxISDJ1pwY5kiQd82HYs3FsMirINkp2hu6cbiI5d/Ymerh2du3fv7uzc0dWT6N/1Uiu70fyjsWKzwGGJBRHBKMeBYIbT6ohT4ieiudFUjZT+GW+Anu/XMjxUHzlUFXJAcJkhS5Jo5nI5QZQkGdFXDGBgtcpJ2QbIFr79g8Z+hl9+ZfvXuvoTjvq7vrb9O/+h5TY+jaOxqGngEBxwoCjHAVGWUevwGyfC9ZRmi/KhxseDTVeIHO3ErsNuCCCHiDsihQWA1XmD1+mDnCkhTGRvIEKpKLs04RVlGyIb0t7RlrZ836ilNEe2UZCe4jgwmyG14ohy41PFxhCt0VQ+ds6POCdj/Mfjp5x/RvzH9Es+RXIMLNRKDo1wtAsf5XUA2Dz9ZlDRSa8sYHkREywAUdukKNsQWZiWVRqqX3v5pe9s/6aj7d956eWW3/g09EZBU5sFDq4gP8VxYKOA1Bq50fH/2TsT0LiudM87FmLPgzy6bRPjDg2NF3iiHWg9s8nuZmt4Q4A3A2besIwJTLO0Z3rEOgFhJN6bdDd1dfZF+u6BC/3YwuRN3mS6T8cRuYps2Za8lapKdlDil1C9hrBDO47sBOaee6pUt0oq6dZma3D93RbnlpeqG/X9+TvnW/74qcYbIFQoYwzgmJCuiVtSILGUSPs1jmWoBPNrFLrf/jTJUap2ODF27FoCh9XlsfXVYqmYGWNQLK25WtOk/mPVNSW3T8r2Zi/lTkf7qO/+6FiyU0m2KsnxRrJXOfaj4QnH4PULdzY6GFWdj/oeEceNB3fKnY3FeqCe7j5F2AApWUBABdMmWdsAg+NGwShlgpQiqiAVKhhHDkCBRbIQP82YA85Vqh09uGPrSX/atavrt11XXIs325obiXC/WLrfGM7jLLwvu6Rsn1Ir1StvHuifXj79VwkwDh1/+CTRw+OHkpPSU6eHPbGD1ivrCwMDx5UrdxoRh9O2iKNDcKxVFhJu0KcpQIYyxnGBAAUrgQHDgaCgA8QZ46ERQEmBcOBgJDieEMaYDtRTJEdEz25srOWvo7iWxBv3ry7fXvPBRnZwkvuGJRsV16N/fayyPSlb6ocWrv38QL/0nZPjSSXHkyQbu+lbVR5deHJkfHL89HcODFTDgvN7g4s4lsbuZiKOHef0rD64Ve6EG0toV26IjGh/ZDQTAlgcAiOB4IJSZghlKmAgBECggWITCSoiEmgGcRprcBIw+vSUkKNaXct9Zj2WTFG66sbAltdaHaSTRsWiM21LZsLeGbu1MZikbPV639IqL5yaGj/x2qbrbcs2yp4Ynzo12Ib6YcG5sx4YiLx3YOOfslLZq5SdLXrrwf1Kfm5cWooXYddzTL4lBrQvCmPOWCQCxSD5kqy5DjRlpEAixiLswEEKwIFHsREAyAAHxmPL6FNUJA67Vtl8BxzJKMd7rmP57u3EK8uTva7y2lK6vVxL7LJK95arLeOL3+lPUrZ6388d7Vk/PD09ffz89j63zc3zx6cnTg/wlHQIjg8rAxuCV3rgxvZvnYwmI3pW3Kye1dvZQo4H1yv5uXElXASxU2UFgGMGJQptCWtw9AD3yz0IdBBiogILIBguhIQgEwOlgAooWReUewMZKEJkAbNkbSwWRDqe9ChwYok4Z4yBU/t7WdR5ybFx7XppxY0oTe3nHTkaKt/566mR5bW7qXvTrVvL2RJSl5T1nbI9q1L8q76A47vt22M3N78cNrkNUr8cVMG5O4NbWm8MEi3dOntwxmn03I21RsRRfLBeyc2NqztxQ1BgQCkJrbWyplA6WWtjQt0v94IOINJaE1IQgjJsrbQIqEhjC2mNStc0tNJazNxau/eVhPVUYgaMARVUYxRLaaWMkdK+c8+9x87k+OtLechRuTN251Y6Z7pYvDoyP7PutitexfLq2amRBze9DcuNsdvrtzdaO2X7k1rZ+PCf+sGNo1OH3MTinfX4/KFhW/3g9OaJwYFjLW1xcz+8r8foRGLlMzHy4HbWPHIpb8SRcMPuNLiHMYJjE0ikECaabkljhVBsA4uw5qwXclBNNADz8Qshor4W6Zqna00ITdfut2BCe3pDDgSr0BhjZYiQQoni0CbXUmFM29zMInlwqbK2J36riQXf2A3HBuf5OzN/8Ep93mCxdG1mfnSsdlm8s3z9+q2NVmfI/iRle57l47kxecQNJW5LjgtHJgdFjqFeubIxMHAUx1ayngml1cOJrdjMWLGYTauM3SjndAxw3NihOAtJa2Pf47FdVBPsQhEFrLc9AwNkZagZOAlXwUHBielQSgWNNemxkBwY4NBFGYok0oJCptdGSRdVKcqAbhMs4gcLObro15Na0VogWCw7M9gHfv58sXjl4NTZFXc2WvPBurLuE7JNSVnvDNkzOH7R+7H+tycPOdOl9tp8lIwAG9aoDiqpUhkcOJZXm4o21u48GD3rxxY3jj7W75dzcsNs4wZQIk2IiN+t7Kj0ocNIBqHuiR3aWoTCWgWHCRGyRru1Ctza+sStWwdxT8cagkgXPBEhWgBU44fQKg4DizXAjuTY2NOBb/2m9+DzML+T2M0fXk0OSmvG854bTsXbS2Ol8g7ji50zZI/auPr93vMpE2ecmdtu2jx/ZjiseEDgeOnO4A5Hi+uux60mT457bgPdVAp2fbWcq+5rLGjlBlBljSICAPZsNREkDmz35ZxApQUAhgwBKgyiFEBaoKAD5b7akFGGA8wAtFFdvwsjsTFqtwbZWhSlrNmhOBUW1YO9zOs2bq1fX8/kUdaKV0ZHzq2vra2cHRm9UlzLZMGKV1uH0fqk7Ke9J2UrKz13q7w8Pv1NzS12Rw3tEQYMDuf5OSit3797t6VS1HMjG3HcLOfjRgQtzzIyVjW/kmrnIg4AoYzBFLoNODCnFLhRAFgKoJQRSxgPQ0jWgK0jSehKTHgYdxttEGtCkrNFjsTG4m3kiNCD6sYe47fWr64Wmxyvrp1L9o/JlwQfxQY2kl9Z3j7F+pM0KftFr+Qo33mpR3D87bHJE5spN177cid981XdcnpoyDSYMo4BgqN63R2ObqmOiqaIo7h8q5yHG4XmfApQFdgMBgAoCDdBA8Why6rESCUXuqlrFSg2tjt0gLCIAzBhMFBiCAAwZTQwZTUkQhIohJYBUCbj7mIabAOlATK9toLgrIjv498NhBDFS9WN3cGRTJcvNpWKrq0cPphYMxzemkVf9968t60bwSdle+93K6/1Co4Xp8/4A47HR/7H129s+/H1Pz6qW0BODCeBDUC/HCQ4KrfG6iUbDWo0RxyJhX0xBzeWC1GWGwDYBBiatyJhaBPFys3DwQqlSdEwxFpk0AEqkKSbDQuoghKUBCEFCrHBQqgCYpQyaYjQKMDptkUKIVBAoKtoI0AUGvejVRiG0iaS0qV6/d2ESgvaYAcODAZoJke4VK3snuoaawr5kmV5ZWZk5NxK2V1nfhZvrFd3cIZ8+7P3ek6tlNeO9piPPeZ93Bw4vv7Zdr3hwDE0nR7k3MCBeievr98ttos43LJ4e3m1vDc3rs027VNAhwUETDQGi4aBjWNFXWaUQaq0bIogFBqrSIMdQONAiW6ebGwS+WcbkFvXwOXWNl2DloEJbOfcANBxgCgT/oK69LI7f8WC8VQs/aKVux2DsK6xQwCgbSCM7JVdyVFdutIIA73P5v3DIzOjI2eTGvTmiGNlB3D4pOyveyRHudSjKdPL42c8GTw4khAjKw8Or0dnxr93YKh+6xdXBnY26h0gr98pZgKOpogjaey+uXxv74G6C/dms/sUABxYwWoXTLgiDqQFjzjV2hVvxCh2OxWiBfCIaWxNiHRjoAYxXVVnMUpIffwGCLemTr6CI7vughvKWM3qszxwbIOYaIgiRnUi4uQWlEcRaOIgiQWwWjY6dMjJ1o5Fwdhu5FgYu3r3buZbspZUb0ycXVmemZhZrvfK+m/U3Xs3Nto5Q/aclP3wzR4tpx8+zoBj+tCZhg6d+e8ZcDx+OHXywFD91s+XBwkOl5FN5sR4E2n3s66im1B35+b62Eq5vPegubmoiRuogLbm57jEiiSccaYxjtPAPvSSMrlQmADnLiqICaujA8IAd1NM2pwcbfMydE4kEQbK3xBjGhm7dT/Ib1VSuQXCWDPOGJbGKs3A+12SwOosOSAqXNtlgHH1xnLW3Ka0diXNwpZWkoqOpWKpkVUp3h5zZRxtyPFeb0nZcm+W9T88Ov16BhxfJxTZbOjCP76RAcfr00eHPSv9B8e9jdIA5UbUuTnat2v+x06+YXY1GcqfeK7s/e4LNy9mucGoDAh3K0EZYGuQjjgI5UtEMdbAuFN6VKpk4Mo8IOLYBiGpxwtMOfQIui/ESD3cAKbjwCoacUpcyasJGyOM3UJJE8gYaeCRQMYgnd6DYFQ6EGbJMXtjoS05Knev3brbKDK/c3hqJK0dLd0+PDF1+Hal8WurY22o7pKyP/n0s3ff/nP3+pdX/kOX+vu/S3rppw85MGTB0VAGHE6PDk33PSM71CsrAwWHMxxNRkqtey/p69cTD48EGM7OPtHqWg4DwYXb81GjzlwwYYxIrwVwd6AoeERxaI3FaYMHA5+Ppe6CMypIaKxVInK/ORacpuKkIIHtB3IAx4UQmHArEbuzzogT5MILLARlqQDAL6gQLtiQiribNgYB99ZTKkBZcrDFi6sL7fMqjfqvtcrKufmZ675bpVRcGpk/e7/iLlLKX1up7OYMefnyZx90rT/88//6T93pH/7zv/+7Ay9MHn+8MzicmsHx+Phk34vAhvr+oMHhvJCrpVurie6veN1PljfvVqp57IqrxYlmbgQSQKRLiAtScw5KGqkoZwAt7V/CN80yd9SIRMSx2dqicB2YfUAOARwVVAo7xlRgMI8YDo2NscOFZyD18jAExgHHrtyDR0wFQc3HnpEgBsj8Z4rmby20Bcf1G7XT0bXSWIKKm5ViDSPl5dH50eWiv0zMstbafYN8Uva3v/1N9/rov3atf/j7xKj+yeO8EcfjJxOnDwzVZ/34/qDB4cOOaqKNilfVqZKrIXbBGUs3c4MBrT36AWacYeuOLzjQ9mJcKxPEELE4kIL51+h+IAfwuIC5P+iQBeS3VBILzna9HRd3SMIjEbtohXpyhC3kKC60b4/1XYbFm4enJh4UXRbW6Xe/+/zjlbPzE0tF3xMw1v7/Gi4p+8F7v+1F//bf/kuX+o8JOL49/c1m3ohj85vplw4M1Wd9a7VS2rdaq5YPRjwTglMXb/gnThVCyrmWQay9wepuYoyqIFA8IiYgNXLAsyeH4wbhtQffah5pdxIDDPbsuQfX0aIjToJAe3LoQGaPbXg0sraw1oYc1+4VfW/swZGxUqmGjb989MFnX7z7l7MHr/qu+uvL7YdYu6Ts2x998cEz26r8zfRrm3kjjs3Xpv/mwFB91ks3K/uYG9UZHmXiegis/2cVWFxQjDNXxbAnNvyzxikqWBqB+4OeQhDYXoaEQboX6kkcFTzG3CGFC4gK6e3kUYoOxCMICypDjswA4+hPlepauxFgN31QsX69VDvR+MtHl99/P/nfZ3+8freYVpOOFSulXfTxJ299/ufu9fkfv9XD4WgCjvP5I44L/QfHUG5w4D7VWqshPbOmFm+ALLgnzAY4d8erYEzLAuYMBwhqadAeRpELmlaYQS/s4MrHGwCx23WRwLjbySsGKjAi8hkiT46Y04aiaHRjoQ05bl71m5VSfYrjzX97//JPLl269Kv3L7/7O7eLWRm7M9g8/c0etg8OHBfyRxwDAMdQrzpXk/2pjRaDWB4HgtW4EWiWRvcdhQwM3EOWHiT6a1LA3ZID0NysRZhyDrRLMezPNwBCQxhThZh2dDvAhCOhvx9/O4qJDDn4zEa7mGOldsxRP9549/1PL3ldvvyX3xWL9xw3BqnK7aO9gaODiON8/8Ex1Idr+xUcFWe81PycEeaXoRHuQUMAHbetByFlxMSw9U8+0K7E5ejM6MGJ+bkACQbQ3SxTxNNFaDSjcdB5078vSOHa34//L5QlB5zbqLY5rU6M2jLWCDc/e/9SXe9/8bvby8t3BxyIlu++2tMOe/r1Ds44hoejAwBHqbxfubGEsgPNM04lseMGKuAuTiiYtlIwbRDzl6EV3ZGDhQk4Uo1MzNku+uaAWslhixvSfelcjoTg7seTIw6abicSZ9uQo1y+OXbPNQOkuvuXy+9dquudy38cW/GJ2IE2I/QEjm9Pf5k/4vhy+tsH+q4hOPanKgtuoDltCGQ9oaICzcAfK3YuEFIKRmoQAmpQ1+DwGjnovsxi1rnPkzeVREYz96G6HRRiJGXEDw8CsLK54Y0cbtdkX757PUVHqnff/9dLdb33f/7ljqsYHTQ4PuypVWXiYf46jocTw2aVvuvEfuXGmG3iBlO1vCPggEAbbkDLBew8y0v6YV2CUocQAt2C4+DowZkJFY44fkx0eM4KJCDM3xdh7iPB7i0y0J6Ejhz+NkSrgRxE6kFbcpQTS/r1m7fupOD49aW6/vX3H31SegrqCRwvTh5pjTg2Gz9awHFkcjiRo//g2Jc7lfLCetAcb4j67kIECgBv5wYACCoyvioqO/cmK2FDcBwCDwDZQ8Rx8NxFzufdamYEc9qJbEoa0K5wNLSiDTHAF8AKIfzlzuSIAVQgfPzS4ueyGC+1HUNaLhXvJ970N27c+OP/9mejTr965523P9nv4Pju+JkLm1lwbLbdqmxeODP+XLhBDsHhGulbBn4xVM/ESkmBBJi1DhXVfgJ42FByGeJ0fue26N49rAb8OwQYegEH4xdd7DE6M9sROFSQxhFgYmDICNgJGq6hHoXSJj8SxcrNPN9ODz/3FKRkbg0mZDSrxfDqQmXXTqJ79+5d++ffX6rpJ7//1acfPAVylE/0ODjwy2xb/cR4k5ra6r8cDg8cBDgq+5Ebq3PN3ABtPCpY6rhoYtbsJ6AxsoFUaW9sXVRjrGwgERbQghnnES2Mr3oAZLuMOBwvPDicZuYFo/llFEszzEZwvH23xIAS5ZphbahwTW6Gj5tvpmnL7aRulEx7mDIckBZy2OWFyq6tRBuVj9++fLmeVPn95V8ldm0DJ0flRI8jzo9/lW+Qz+bx4aDz5wQc1aQhFkTLSSKDdBEogNiw5hrK2M3kAIDmvCg4elBsjUQtzgiAAuD17Y4wGPoRcUwQLvIPIjQgfKaI00BBKza0km7kht+fMGB1owSNrAujWstXGDKU+RiGchsDbdJi4frCXnHlW+9eTo85fvP+5Q/e+YOfKbqvwfHdU66SI8fowM3z46eeC1OmITiqHx/kXLRuLtwrIn1CSKAh4xlLwkAq4JBeZuWvgQuU9sEBzciGnEnLfA4z7BUcTh2Bg3pYuY/ApW3ul2WA47Q/dgfXbGAcVGwNIsCydwsGMWFjvtNxr6CLs/f3IIdrPfng/USXv3j7z+++81s/U3TfgsPp5NTxOjj+7xvb9fUWOI4/HwPAhmccG9Wz0PIIAg5qJaMBBrCINZ4yHboBPZyK3VrXAbtZHAxEdrMSEZ9ZoTrQ3WZVshHHPMvNH8CmVoSBI9Jcg8YByyAktF1/rKCcp8MQCWMiu/kSDAfU3SFvzTALiOZvV0t7kOOTz9/+6KN33/78EzdT9Ne/vvyuI8c+Bsd3TtVmgG2e/2ZH1TYyr02fGh6NPg/gqLhC8xZu0DA91BAcWQeRRvsJoMDu3eUmKGPYBKrxqAGElvHQArgLq6CzNhUKPGpEHPPnktW5UdnBTiUMWQofw1j2vMbPJgo1YyDE7s2xfiqRyPyNXHiiMtV61ioY/1Nxb4fgj5227NrcTNH9DI5klo8bArabIZPToyOTw4DjeQBHZeEBjsS2tIEGnzJQ6U/qxYkxKmc3qeuktYJnyigwrydnXDyTU8JBiEdci/CgBwfw2ZFkMSUjzhjka5jVRqdFFwZHOMhUjKaziUgeg2zGsM2S0IVNXBlI07PbDlsFh3OV3HNXvF3bH5xd234Gxw+POkemPbR5YnI4cPS5AMfCWBhtj+wthbS1xGhGAppK1EZy5J+1pW0Bc6BeEJoIZAj+oRO5W2Ld6HEVXJwK4ho42CLD0qaPOzAeRZzuLRKAr/0SUTZ7mvbHspwQ46ACm7l9GUfEE4OFIW1VpA9XK2v5yfHFOz4pu1/TsU4vjk+7MWC76fGX0+PPQ/HXsFelemM2otsUxkykD3tMuUU1ELCwgBkTnfTBZ8ejk4BEyuj0MkQsHzW4VsHc1MjoubNzqB5xYBnMzs1PjYyMTMzPGqX3DhhAIl/CGnNiyBbKGCrElNO8EAOWkJDwxrGJYKHkfkMntpMDP9gztdIyUzRJyn68b8Hh9ML0+Jebu3Ljm/HpYSr2eeiOrd6ZjxhtlZCIiTQGx1wbUovqbaA5dDjgkxRCgHqPWRzpmpESknl2BxwXHDRmzp2bmRmRsT/jmCMTM8kr587OjExMHHQNs3N7ZnchILVU0WJsG+5tMsAcBM0tT0Jeux8REI4M875QBGirFuMrHZHjM5+U3YeVo9mOlXFXBtZGm4+/HB92qTwP4HCTAjmnrQLizdEAGxIhWXvujRGsi+bYoE4OpqyI/F4FlKR7iqmLI6OOEaMj8wUleC2rMqdGzyYnHLOhFkRdnEl0boqwHEccFLDVTKItblijO7VsAIYLcT2GQmFqg+1CDqPoNkEUXFvIf8zxVjYpu0/B4cgx/fCrzTbc+Orh9MC4MdSrxf0Djo2Nc8DpdqlawYWMAfyTBtQayijtjhx+RVIMCXel97RtFAzmz864ao0CEoxio2qHo3N4bs5iABIXLk64l2ZGZzXs0RcbCx/nRMQQVg+ALGXd3E8hBqilrDm1yKV2uFV0u1g0t1ot5ZVPyrrUyv7rjs3ohfHJI+cfb+4Ubpw/Mjk+3KcMTEfvVPbrxK9t4DDI7VQgPR4wlHXbho7AL6xi2nhi2L23FyAn0l62udnZi1MHZ2a3zjgAdDg7P3JwJpGLRhDdQ6wGv1hGuAYOoFZSoN2R0JMDiKHgweHJtE08mngrZ8wx+KRsufjqgX7oxaOT4w8vZNHhsXHh4fjkXw3PRZ+HmaOVhSUUQXtwALWKkbRGAeLAPWbdksNTgsUSmMEsDzicQCdBxfxEcgh68ODIiIlrdRwiSKAx6qExK7EGBnvWjnl0hWGk6mM4wu644cnhj3a1xMzXuwCxmm6X4Pxgubq2P5Ky5TseHD3ruyfHJ888PP/V4xo8NjeTEo7zD89Mjp98HirNh1POywvXgp25QVH6OKQ7eCwF+FE+tFsB9lUhHFkHDsgLDt/WTlQchjHCEI46JVuVkXMzow4aVlGWyzoWQuS+ilDx0PeVgO+P7U5Aav29cRih0PNn51pYEbGZSrXUSVL2J++4pOz+mzma1YvHpienjzz85vyjrxJ4PDr/zcMjyQvHhuHG8+Cr4jpivSX9dolQAaWCKylYiGqtsqLNwBtNsBfR7SygARlfFWIpk76aLFSQ33jamzKS4GKSgj17EU9kIo18khjS3AdmFvH6bKId34s2bogI/8o2CYZ9VjmWkZK6LTicInG4mpsc3q7NJWUHO+W8d7188tT41MT4mUOJzoxPTI2fOj1gt9ihfry6sT8Kv+7ML7YpyhASp+BAkroIwRdsbxOA0Mp71KeSUoZY7/SogbCI1SIYFFOnuIsBgsAA27mAhNi35eaWljgNFCTx4AARKNiJGoKgcOuOZLJUWmx/Iz+MyIMD293BQSO1tFDpMCn70SDIUVn91oE+6oc/euHY0VPj09Pjp44ee+FHAy8WHer79/cFOKplb/WYAxyAdyj0BNDKBiFCWDAvjRGSgQsFYIfgXkP6Tz5XoYDuwOEEnANlQDuTlqQJHCyUO2EQI2NihGojRsDdT2gMIjuxwyjIBw66aNYvlfdBUtaBY6ih6XSPqi6cZZGgucBBrdo+NpDEJlCaMgaZp5oJjQKLtpuvQCiZACrVdnAMXuDB4bjl8kTCY6xJwIRyPbIaGq31AIxRnVrLUrb92EZALnAIWJy9uZCfHJ+/e3kwSdmN+98/MNT/x3plP4Bj49IDvShoLnAwbGiLmIgDS1JoiJYuVsawNYiybV1zBChINDBw5Niq6FBxBw62bdA6o8pYlO5/RCshmQgDu82BhVkEFIVR7Xao0e0LUhbni10kZfv+LV/pKzi+8+9Oup3KxESyVzl2crhVGbx+fn1jHxyMjqHFXfrIY5QFR2sTPDBsDOZMtLVvM5a01mTGrqtDIo78kyYV0MErC8JEcRxZxPwwxOYeFBmott17wEXsOu9bN18uq+KzNLtEHN5UNjF4e8adsg4cr/TvgOPFY6emp6bPHDqS6FB6OHrye8MxowMGx1jl2R+MrhYWd+vtUpJtgYPogDYJIA4QtB/JISinYUE1kwOI0cydcYQIGgO5Bq5sOpZCHEaxdF17LdxQjgsgdu3zNaSFHFJBiLgrANsDHFRE9PDCRv4DUtcp2/+k7Mb1nx/oj/72haMTk+PHn7x+4VFSwrGZpGOfDD4dO9QvlsrPflTghEvEtpcyLM06Ws0DHaLmp4jKgOze4yFqLR2i2W2BO3DUC8CeZsTBwkzlKNWGQNNnTSlHdxUDVGg56MFGWM1snIJDW03bSyyqKwuVjpKy/e+UrYz1CRwvJ1Uch55ccAVgvgLsqRSADfXmh/ugQ4VzQXcFB/dZVMUtNqQ53rB5mt24LsimVlpQlqcgwiz9mwcfcWwvOccWdCCwpZDlhixonsvovpkcWsaGa+snnbuS8920GNyolnLrrSQp2/fUSnnpFwf606wydebLR4+/2qHkfOro9w4MSkP98tVnPJCjvPHXOhK7l3paqPeqqECK5ofQCCZyNYOFHJo8V5kyACYFB5b6aYIDxbXadwIGNx2vAA9zcMOJ4WZyQBjYSBnwR6WK7iY3hLTYWb/bb/pMjnLp1f95oHf9IGmPPfFo2OT2DPRPR59xX311TEZ7pyEcHLiNmZ5rGp3B47zF54wUFG/KiWpluJIaWuZxDF5Qa6unEkWhaTqt4KiQ835arelBzSkeW+7W3Kg9e31nKpVSR0nZ3/Q1KVsuHf1lH05FT08mo3x2aasfjvEZmH760rMFR/XmXET3kky37gxbQediyBZb57ee5qrp9wKSKqzP44g7AAfbRXnJEZCaHS4ns4ZCEwx4/sAl2+kHelYIg1m6tJjuIedGXe4sKfveZ2+/1ceu+qM/7f1Y9PTUmdd2G+TzZHpQXkxD/eClZzqQo3J3JMds3jisT+Gl2a4OoAHq4ImXFppqpkJSS+1qmfeIA7jAqK2UzjfBC6TamggymzGXAhHEnOYVgJXZP2sFTiEkGJKC7qXIjlVLnSVlP+1jUra89tIPeubGyckzr23uMXJ0ekDJlSE4vvUs22Mr5XM5jjaB+C4ukEjbdOXF/OC9fPK2aRlwFAyt/b0kgLx/hTHhLjI5re+xqfeYuEqOJkM2oLnFmix0RYwlqjtM5UHg3M1qqYPUiuuU/aJv5Kjc/tYP+jBy9PW9hhU/mRgftrsNBhw/vvbsKsDK1SXEc4/QEFxZnAEHCPfg5FeTuTMjczaK/RxBJCHvOcksht3eYLaAIac9gn/ydaZm1du/diCILcvaWBvtLiGfpyXjf1rriByffdrHIaSVez/uFRzfOdUYct4ad/hr7+N2zL3RUH3Xz5eqpWclP4JjbwHyTwjY0AqgXoJ3FHB4HxPWgMCsYgFmwh855BFAaOxuZ5ccS+TAtrfimNVslDIN/YA6uR8fiWEu6hd4DjGRLkyuz8D12Wqlo6Tse/1LrVSv9Fw4ejr1gPSYeNRMjs1HHh1udWgwxxxDvXnimYGjeutiHm74dlaWhhyFoBE0gI2hw8qrkEImrYIsQJrtFXn/vJWYQVtxJcNQQJ5ZQraeJG4YQAL15Vv5BVTGLJNWAerke19yiLu5550lZX/dL3JUT7zZ6/ie6fELNTo8Pj59/nETN8aP1Mnx+Jvpoef0QPTLD6vPihuV0dyJCCk5TcQKsxSoF8OGAM0vbzjSAEeMfLkUWAS5+1pnCxpEG4EuzNqcH8ko8M/uHGaNYe5+nV8Zt0fvr9swnc4hWCysLJQ6S630Kylb/bDXbOyxyYeP625tP/s6S47NC+Nff71Fjs3jk4MIOYb66avlZ5JWWdtYOCyiDsb9sXr/eB0D3k6pAzFicQYchRBqJ6/5Exlxwci2MoWQ5nxma6VaoDOfSNkOuSF4ZlcC2OdnuA0h794tmlhbWOuMHH/oS1K2XPmwx2zsy9Nntuzov34jS47Hj8a//tnPEnLULl+fGIgJ5BAcR28/k9PR8qUrKsoflNvQlyg0nhSmXPzQkTKdtaBnZwXreMPDAau2wsBpTona9EOQjU+ELKe0UxKSBjgsS1kSEMgNHjjr291yDyG9/JO+OENWbvdaxnGyEXAcTzjRIIeLN35WA4fXkWFKdjD52HvPZK9y6WZhEfIfbJK0ThJIJjaPY9oxOFADO3Mx9zVkguaXoCwrAJYVFR1MTAYQ/hN1Dw4QmYJ1Fbolc4TNK7FIli5VSh05Q7ohpJ/07vTZYzb2h0en0xIOT4433tgix+ajVm48fjJ1egA99kO9sr7wDDYql8puxuie1vDAUgEFaRgIyNZxhAho9+BAhgEVAEH3jbEC4P+xdxXAjaTZWUvFGx1ooGLduUIDVRp5r2od1iaFrjrGMHNiBRTwkqP11gjd/P9/d0uv2+4lwzL3gSetZWYd6VjhpLgWJppDue3+W1rrt8dqdY83pW+KXDSi9/V733vve6AMByBbSijuIw6k7Avu1Dr0WTpjjdPRFrnB3qfzCTS45/KvRt+U3XhqMqg0evisPyF67Fov5/DzDb8j+2vTYcijY5ROtaPnjXb7soZF9jr1amGMXGAAfWvXxNBo0BhOAOIAUXUD1zEVGJY2MEIYETLkkQZOR0TBaiDi8DMOIKYMBBFORApGm8DYsvbKgQhuZJr7eW6MyIS0faoScPhr/niPGnqO5hy9vEFxOIxaZYziN6JXR1v5I6hBdi8JGliXDSGbTqcX0xxCSNyMtJ6pSBCNfcY86TXNcRy0XQENe55F0816XbRgKOYAZPAIFOSu2QXQOGgjhvA6ALZNAMvufmLpbM2WZGWTO3YjD2I12DIH8zLk5x8IxhyvNb9RDDjEkfGGv1x4zPH9nxvAG51jC+MTsiGgOvFy1OpoM39KaxCya7Khq0I8MVMuVguFQjXBWRiZJgLUZYuhuyrgdUHdPREdCADvoKF3XLla7eIba+KQ5QoovIHd/RvkE8fwXRWQVALucq3lpKrdj6xYnkqk6ryqWxgpZDeZ4zEqc0R1GbL18kQh4AHChT+i3ODnHNf+3bUub/QvzHa+mzkUGyMEdfSldtQeo1/mG7t541lYEuIzlULPa+Qsi3AOAt2WKXHwBL1NEyF7xBltQiCJd1uXrkQ5HDBfF2q1bH1YjQTJnIR910L3ej3jxTDeHsG+XykYDnKtAywtST+32WI5ka45YOFdUrsG9+WNV/fHHLf8+71fuSsA/uuNxCeHxyc++MHYSTr91ZtzuLjWyzc8dN7KvDsWAsbbKs9FTBztl3YVRhHWaqlytb9pnOCxJXESQqZEVzt6fbsImVtaXl5emiO7DoDR4sZwYKD7BZw3kGII9ZrJqwTBDqA9AEDcRX8MoqoAvRPFnhzdfntLfeQBDp3Z0G0N65yxyRvVvm+3WplJ87qFCNv2PPNKez/M4ZqQfv7bAfDvt975u0Pjt37/kx+MJafPvm07pTsGtoVjPm94w6OZVGz0GGPysWiJo9X8FYsdIYDlWqrid/kpcwjY2ow0zVZc9I86kbnl1bX19bWV1SWyy8F5B/y1OeQ6dBDAiEqwXcDeoBGniIYjKzoZEI36XkCIAHY43ZJNGfxrL8AK76XlFff9LbvMSN+Fhom3cIsU3sQN0ecNnzsm4xx7459gxFxaYZuQPvzwww8N/+8r/xwEv/mJWNwnDjr3ddpNOU77M6R0BCwU4hij+Eg7SnW02f6GzG6oIGTGy5Q2+pijhiyHk/2VNPdmKuWNlfsfyOdvuXedzRxI9vUEzUTYNd8D4NKLFwBZHRMAlSeWLULv62Pwxur652/J5x+6f62HOZBm+hmUiGwTWQbljT4UJuMqIKZAKj3K+AUwd+z//XNB8Nlb/yYAfuPXPzEg4/iD6Wu3KhU6Q+qhE07GMUbhA81mlB6jp2xrl0GvWqLKKqnqiuXwukaX4IH6+JCllXvyLu47szpH2E4+oGxPemuWyxtIqSUKsxcA5bSEFQCDB9nWwcuIWE5kc6vrD+VdfHttmfTcwMV0UZ/YJsJmiiU6VhM1nVmuWMLT+9LHb/+vB775vwHwzTt+5zeHx69/ytU4+shhuw9L5zn6iWOscYTkHhilyNF6NouZKj/W4uUrmWLMZF22RL5P4dRhO7DO5LfxEI2sXRMO1yYckFyfukB2DaWkimGTOegsBnXmGZBwrP17fhv3ryz5M2yUQg3HtjEIidkY+9NLy5iw7kf850vN/cgcX7v9v4fHf93+xrs/+YkA+GAs5g+O+rzRxfTfUuYIv6syxuSpjegKlZcvRsBe9E6W9go2jTcNoDnEtrK4tPK5vIduyjFY4TAdRB/VssZJgLBN/7/oUU1xCAE4pmjrfVZDO0GW1/Me7ltbIh5tUiKUOd7A+h4kWEozDU2RftWr0WWdG6cCm3G8L/NWZwdvfO9Y57g/fU7ROZ4Zz3GEglJ0Xj6vNa9i1vGAjVR1r2ATFJmnNlygbw+ML6/9Wd7DPStzDBceBejUqMPLCCtConohM72ZrIQR0kzOAGojaiswqFK5P0+xvky2lVHR4w3gahpy4uW9vue0jpmUHaGfU/vRwHR90fybPjf0zIueG8AcndC23Ma3VV5pRXYMgTXlRBTLSRX2DLaptEY4QelJ7sEljo28h88PJg6R13uezzbBWIxPXmBXuUrSBoxkvkaLFcVUAc6HOED3rYqRI8iKwCZdikpdwYRlQfpMVMzReuUDgfn68tzRPt6gc1+9zEFl0+n3x0LBeATs+Y3IjiFgYPAGnUDYHaUUJ6sqojKHyxxLaw/lPdw/oFQBJNLZciBCTUSWLqSKF16XTmQljIHndKA+qurOnIP4Ek7+FlfD2eQNoOxpEy09NXs+RWkdWMyBLnm5GVGl8nxwo+KfOLnwax1KDD5vUObIUA3k3Fu5940NOcLB5FPtaFbbXv1PjFi8IcXPL5ALU2nD1DyBFWm8BtBtqtDAWt8pjgKIvh4AtqBboMYjV0UZSQenY8sxFT/nsHWAt2sca/f5CdWSAiCbBoA3TmI7Quo8k/+pGkYs7fhIOxrmaH9pKhYYV+S8ZZXO4Wt83qDMcc20+8fYAixUlL7RakYhjG4cYRXZxNLj5134VhP1rGQpVCN0CCyvPex3HYjSB0C6ynsdBQDVtiwtG7m6wS6+4iaxHNWbfUeg8hqgt49xnNnY1kbXl+cQEXmR8gbms4t711z+7D5rK89yotHIm61vBJI46F497bae/l5XF/V4Y0vn+N7p73sJya+NTUdDdAF7NYqUI/+EYzGnF7Pl/Tyn352RKXPopil1Bx2+7eYb96/0JRxkMxI101aQ13gUDZCFVOUgSUwzaVs3NARkey9Y41UZeVut3pzKGTfn+Nz66hxINs2fCMJccqqwn7LUYDAHNIQXNl6JIOF4baIwgvJ6YuGtc95I+WmPN7yco8sb5+gf8+OeSngiRwTK2CsbL9cawHK/FPaZvpYvkRsecygOb3RHss984b771+lMtufXBZLK06AES9rM6+lo6oGhjjgniHSfBOsqb8iAEHXiIZujo2ceuPfM2vJS9/04ipeRYLzfzlAhyXBsJAhf1m6/EoHOFUTioLgod/gsdTLv30/pdN70eePXQpRGx6g8uhG+wLFxGWNFhYDF7/siYCUueRu2gGSbv67LHA+srfZugQFGuqSaho7A4yenXj9ItEFRnUxdwnsfD0Eg26aq6YAx+NXK2r90B85vMHn//SgWqu37sFExLmNGuQjvyTfD10Yfp7llsJQjRzuyO+5O99yvP5oLM+EY30h4rRW6B8c3lIYyEGAZqf0HczFpUCJCSFYfvOnmB1aWEELb66kY65pjmo7shRmxLC45U5o9oOVi6d0CthSvXEGSY5qGqMkIoy0srdx9x00P2o6OEDX+0+tD6IyVuoIYG/bG0/nwVw7eM5pu1uW7XoCkhqO5UBWOca3ybNjlbf4ZtcG8gJasDtXLFIDW6xjNrd78wNpNtiPJsi7LmmPbqq1qfpghi9QShYOsNE3VZd9uACFd2nwP3TexhQfX7r5j9Qbit6Ww5cSH0mqmBIwYG/Z1ei8hvCtc7x4RdXdvTv9BZw/e+P50qMNfY5RPhbwhu/E1pgcHIvOlYSNNo+m98o/L3YzjOtFRVbsL1RFFiQClDQVbBt2DOaioJE1kAfH1GaXnOP51K13i+EcgxCvvdKa8sXdrBQPDSPDGditc5tj44mRsNPjVQ/NHzzKYgwoc40Il7OHRcPsqrfZVFmOXHiA7OXQfOSXoniPv3KpbqoAub0IHt2ahIqkl0w7sAUZhpi7inh3AXkugpdUuccz5Rsl2fHJ22NwmpaIA9xKCmbHQZmxg/MREblfmOPeRn8uNLyOEjESoG7LN/GMSy5wYhAAq++xknCcY+cThBptHGR4w1oVkZfadUDMWU1kNDTTd8YmDAAanPhOAB6tJxhouNPhnNsJ1fwteqVC8f2L+8K8xdY7O96fnI5gZHR+tb4aYn36ZY5mMIjsxG7CVyUsYUeLYCYw0IUmfzgcds5VU1iAYmMRBEJbVdKIYqOwqpQkwZI75l9shSqPtJ6mcOxLmyE2/1ekMTDfOvrmQuSJs3hij+mMhep13R82ZAoc4lDDa74yXrBkAyvJO4oAuiJlNlQvvpHG8UqIuSAi62EkcACAK8alhaYNiMguMniy6qtUKL/VsPjLSDaGfuCKzcOzXOud20Ebn+0dz0xeFX6eMMRPevkqzfURhCRxyvDSSUItnr9vWODwghECW1OziTDH6bCMwF6bSgibpCCP6hlziuEGsxROVwpUjsKgWWDKHRJPPA9xTobjo5Pz08Y90zvl5R6fLI98/tpCbiKafMt5Xea0ZVnp6yrBYp8jq5dGE2mxl5s477rrtJlXSCVEIkTWb4/42nZgqzdIoe4dxx0wqfS3H2aIkdyE5N9129x03J2bKQVmDCqQGVhij519uh0YcT0zGRoyfODGdmz763V87291S6aLzf2c/8ubhhdzJi8ZlSkQGgs+3Q/qxvFC3gGFZJ4xuR/WDv/nnV985k1hcTG9icTExVSlWr3xHfyXVYmUqkVp0kUjc+Vd/8zufGmFxmpQwGTzH+59h+bO0Xh1hpULx4ydO5jILP3f0+JtdHDv6y5lMZuKi8dhXVCg/Fs6KbOu1GwevchMFm1QYHQ1x/O4nY1d6iP1/wfbb+eTv/tVfdg8DjA6VeTKYObBypNUMa08lFgZ+4vJDEyenFzK5TGZh+uTEj9g7C+bGlSQAz2N2zim9ct06dcoxJfaCHjPqmJmh8JSCY140KeRoNCZtquZfHKlqFSfLu44d6UhXD3YK9m8cL/h5nHXs1oLcX/5AbLc+9fRM93zgPZhtXD+M9GYYyUKlWbX7NXJPmQRaHHEFXhxEnetjdP67aM4DBmGzSOIGkj0eRhAt4vRSv56qlYk8GQIUBxCavtinxZ7XI1m3hu20QZAYjh4N4GPlH3fwfiM4GiUCAopj+AIpt5h0kOChKBYrkkMcMQDR/xzCL1RStT4NVbw+XBShOEALpFxe5ihHMPU82FozCRLLhpUAvKXpd7zPCI6FpEYgQXEMQeE3lMsXK5fusAcklI3wQWKA8hfYlKMTdvrsxFp8ecogoKA4hkGtyy+yp/bFALhP1g+aJYJgynFtfPGsZfebTWwSUFAcw7bYy9VuWynhAyccSY0gsUQ/GcBOJ17mljwqf1MiAKA4AAqkfX4jXjm5HxMOZCDMRAdyymhrTv42oxSmMIriAMDsM4PU4Y1NyNnFASYcMSY7GwL2th2y5SFpLwJVyVAcAJQajFoSbPsQZLebv1YgSFwx0q0AKlDcZrnPQmWY2cRyUBwAZOuOY0ng5aYLVuYITioEiS+l13ygWHFPL3jyhUp1Kk+AQHEAoCmL1JH2yS6AjQPzNxMmQWJ9NxPMYkUEt8uvUaErmRIBBMUBUCA9RqXHwPhFX0BVRlWCxJl8ohPA3BPLuMwbjjWnEkBQHADkJ6pSc3ArJUDeI+EpxSBIrFGbAPv3/v4Tv/PkM82XdI1AguIAoJSRdwZ4x2b3AyxdgzYuVGKPlgS4SNZt97lGxV4FKIyiOMBRpQVS5nj18y7EBfVFMgbg3OJR9++F+xznUm8sT+UIACgOYDR9gTpMUubwbg/F6LMjdY0gsaf0mghHvkZF5g1mw47gQHFAFkhXbZk5eO21Ua9ocs8kDTIGIPqGG4wUKWcXPEv2+rKARnCgOODJTVWlSaL3u7+MdJqj42KBY1wwZk6NEitC3C4rcDBqz2UJFCgO+K2VGmeyMkdja5Qyh/BTBTIeILlEyx1hJ/Y1SxqBfAHupDmKA55Sw7FleaL97AgJqBCTKhkj8DSHO/yR0d95jPXONPeOzgB6A8UBT3bOlpnDK8+6w3ujmSXjA1JMBUNurYjOM9ICB6/CbqigOOBRlqRjfbx6S2wNRSjWdTJOIGoqEEPe90htFvlMcxRHFGiKbO45o/yu4a75C8ZvIxbJvjaUOcSJiqw4z2vPlEikoDiA5p47TGL91wR6Y1DQHH6489z0XINb0o1YlUCD4oAnJx8IxhdOiSEOjG6gN8YQLTu5tVNzBP5zsg5t6kTS2YbigMeckpnDsZ/ZDHYcC+vojbFEUyfbO4yWsFm1Zd5YyhJ4UBwRmcPudb9dS4X+Dm9ReS2L3hhT1LWdDQQTf1mSBB2F74hFcURHfmpZIn+7siF21hA7id4YX0qJs4E/eLB0LlKJNyxQb6A4ojfHsd6f0bEbO7hP1g/O7ymS8QXJp/8cBAMXw56tUcnEr7noXz0oDkjMmd85Tm/eeCgIB/bGqXSBjDOIqaz7g61ufXfjqN17fXE1o5LoQXFAklMWWE/SYZdfG7CDKQxmk9jXhpsra62BxuS75+q8O9iYZTuVqRKJHhQHLIY+t0Kp1YXDB5td7Iv2+3WDIAQLHSfFNccJdkRwkdNubVB7pa6YJHpQHOAU5xeZTbt6ByhvdMQAp8zPJIoEQQgxlWbbDa/hjf0pi3drgzurE6pGogfFEQE5PfM7i9sW6+qT3X+NDqbA9TeSeYIg/6WYOBm6fme76cSzVe8qbTDK6bG56NMNFEd05PVMpVsdXnlj+9nFQpzbc6UUjiCmPnluu/XK/rOLnsMuWcOhnC7PKQUSLSiO6NWxanHbYezSUJ+Fs/u3Sze21pNdPzqCFJLrbSH6jYcLfuNRdjnZ4FaloRQ0EjkojujVsVjj/NJvS707hNvp19ImTiVUgyBIF4aanu1ISx0d4R7yOLP+k9Q6NqflpQk9T2BBcXwtenHIMLPzS2XK6X9/XcZ5vzKHEOdeky1NEcTMJk5sScbIif0p22OMOdTmdnm1oag3IIA+9uXDP/9qjMXx+a/+4Cvf/iy5AeSKM/X/FDuoxRjznJTMHKG72UyWNILIQXXsOb4lxFuDprniMco5dcpLjRk1f0Pi52Of++rhz0kerF3qvn3TV/299E5yS/LZzx3+6uc+Rnp4/uPTXZ8v+8KjBBqjoGeWyo7NKWOelXJFT7bRXk8XDdIfBNWR3mh1qSNw15d/xO2V5aP1eUU1b1j4fOyzn/9s74P1zmn97V18Ivod4qg+3ucl3iAvvPxq1+d75eVdJALMopJZrDLOqVdLibBbG62NtJoj24AgWk5NN08H4lLzWyiaFWd1qZ5R1FLOIDcbL+77/pP3XcU9e6d3xavy9Oq7r/6AT37yEy+RSDDMotJYWihTjz0bCP9yg5I420wXURvIIJmrkpht+SLw/VC0XpvIzOslM6eRm5H37Nv77nsfuMx9n3p4+h0kRjyvvvK9ex584BIP3vvRT3w8wpdGITszn7mQSZ35/68ftP+8liwYBEEGQTNVZe34mU77zHq6aBqGdhM/WC8//Kn7Lj1W93zv1Zc//iiJE+/Zp3//3kvmePBtn9kXrRg1w8iZ+ZKyduJsu3X6z81k1tQIggyMYarJPXuSpRy5TvyLXTPwdF2H4/gBklgwvKJ92qanAfchNFVckDa/Lqtm7dBdALP+K+d6789+zXacd+89Z3sHvDeWzzDCZ/a1+eaXqEp4rdOUsVT3dfTpAUdp2Oxe92RyMFBXd3sGjOpeu3yprnmiPt8ccrvGl3xjDCL5T77s9+XX//23P7/7YcNzx1RZ06cA1hrTGmOsBKZ7rj7hRarspTm45qB0axl3S3fYGlGvGUhrzgGtBUj7Jqv+3UuSp0jIeHRDFfoWglZVlFRPHo+nijSTNoy3h93wnOfj8TTvgxaYqF9ue0nPGONVw2yHKc4LKaLSLfXOuyOyWjAwwX6ejmOePw+7Q1eEVjIdlTc91QgmtcpSCAdE0dTKv8okXTyu/L/G42tD2nB7GgnCmK6WF8UE0WEqWhB9dtvbFEY2bk/er4cA0qzUEJ695H4CqkaAKQ7HFSKY0nM+jNDzrgutTHl124uXVC9lD+0Jz1bWFWe2CCyk/KFvHjyeTEsbT2tC8OonMMFjtwFWl1e8XsrgsHbXoec9OXBjfLK8D2icQ8lqdSe9WDPYdMMSh/6UjxJCp9hKfa3iuJDt9kjcdSivajCxZVHljmWEngorU+c9Jh5PxQWEEyV09QEUjV0LaXLVWyO6IudJQ2kh6pIzuc+x8+bFi+4hYKKl2Y6Irj6C0FMgWVNd6dP9QJYwr5NGKtLEXQSfyJIZ7+LFe9DzisdT9mC69VttoK9ffxk70DGWjH+wjYPd5hcP53speJVlZSPtjPGlcoZCWv7/B4wEBN8QfovnQD/UJKGzgV697xsB4Y68Zpla0Eq9VJd56ryG8cEtPj0gHo/qYfPj401/fPmypr9Ux6qzkr/vm8305lHcWVm7D2sn8s/ibOTf7J2BaxrLE8dLyM/ZdQc4EAELSc1dAqCAEEvRjYVfG5MYYmOAtgAAhARAIBBz40mqBQsF3h/Uf/DFndWcqq2vABe4/bwA4N73QYH73uzs7EziR7P7xXbLk8qSKRnKBwCxHYs5Klnym+pVMNPBdWGyM9mvxIvdwERarxyO1PH22BZvMajGFGXF0n7ly9mCc7y7aBauQc3gb/Kx/RFx+uOTcyQcbxTbt8/+BndkCIffyxoVw8UZC86xa46JVOyRw2bloto+R6HwCf4xOGy+YV1acDj4/c93pJqB6pH6B0ItMnGA1/P7lIL1GwRAZSscqju+QOgCqq7mH29O2HESgd9/U2DCIHynKf2cVjNEsNO8eBvXVarGbxAMApXAVvEpngIUWiPKrjQ6dZi+3YrDsd887Qj1Z+NQ8KVa2YvrTqa+cZArBZzo6OxceUJ5pa370ai37QE7Tpt1SVXD8/sfN47G0dHRjwFRVAY1Q3QKzQ/xmb7NlvENPzehlEGYxF35TxIxW+uNRvdbGY3GcfKsSw8Ox16lfQNqE+NQ8opvoNj3sf3Z6qBEAxZwBN9tEDPKgNG1WJcMH5qHAtWccYR+V2ud/UZ0p2NL8utZcTem21GTRSiTIbwva4VCCSUzfTJENTDOcXnCurTgcLw7brak2sw4MCg8d6G4aF5JnBnHTDD5qdujwftGY0Q0CoTR5Zv7iSU4qqcdVAvGYVI4OtOnQVbGnfG2evxutsE5uzZrukwU9fsR0aAMSqGxkvC+0XiIiLY1X86ppirN4XDsVU8D3NA4FHxpTl+sveJJR6hF42B048gHANEIKcchx+c26xLJ4NyCWmkcSr+nsKTja16hujsLOM5ZB2UaZKTK1vvWB5XM9MoCQJfH9M0zzijy7KgpweH4yO/VZsahvHx1d6prgVpjHBiAMEWnj7Sl+X+5Y3QJsFcsBLjOOI6I6l1lsaHDhd2JFaeZHz0xDkDRrYdUAjXBU2Aiqzr1MzNnfJUOHA5uUNMRmxsH3DY/vGXd2bVYYxyzo1j9QKPu7IV8m8hRMwcOa4yjQWFOzy36pzaPu9+8sjowxqGU9AdUt09PLSUiG7F4hRRlORyO181DqTY3DuyccbXTbnNH4FrjsMC9iTgmBCfJHKzsHbevxTrjgEe2hPn8L+85jqs3VqetcQhvTDWtYuhc2Ld6OOcsTipwOPart7ChcTD5ymuj4w/5euNAIbulkLbtU2InmR6kr98UAlw2jgNAlJO9x1DgQhanzSerbzilGo84sgPOhTICNfQ468F7lYtXacHhuGjfiP9iHOKq+JF1n8XvjAODwM+NaegLqzt/0iXAx+IhrjQOIYJ6RLz3iIFfzzhZUdnxUM3nOI4oisUnfpD58azHyxPWpQGH483ZJW5sHHxg+Y8Zj93++lvj0NuPw5DPL22S40mXAP8UW1ItGQeN7r/dPxJRD3FhNTh5Y4TFQxmLOMqB79ci+h4rQO396hNtwfN5TOWVw5Ee4wj+k3GANQA2nPXG0a3RE/cZmNWrJ2Qc1XNYNg5LeOdLtchp0QirV6zjOo4wiiKicWb2OGJIRFFdomJkgXV/j8PhjAPKtdpDRP1pyCFflnFEURRSWNNCLYJLxgET45jYxM+5RGq91ngk+h/gn4zD4XBbFdhwq6KE1lDqU08iP/Kitiph1pM1ooZGtYi/tFXRZepvl+phmOuqGFpr/4HCEijD+q2Kw+GSo7hZcpTp1ikqa/aRVnLJUbUqOSr9MYVlUAuIxeQo5ziyXX3HJyhxIBjTe826tclRh8Mdx+KGx7EMZAdU67LwZR3HZoXSNaLvWi0gl49j+VRF50I+jI3TbdDAQ3cc60hjAZj4uwKw/J8LwETwi4600b28AjDhDzgeWlMA1rwR8ToOlCMaKVRz6DoNfGF0rgDMkbKS80uxuXHIzUrOLZDlWsuXWXKuG0QPGlUc0VkuObeVozpH4WLIoY9sxIFrS84dDnfJDTe85GZXutv29ikq1iXhjMVCIFYah8wOOMux+pJb5aQj4pWjwvs2y3IA2w2KIfW0PTRKU4rD4dgrnnb+6lp9Ze5a/SDQMAGVUqJU6mqBQh8MaewLruJ4cdfqOeT4qefWgvi1+hZg/K6Krtv2G+hvB11AhG4t5NJRRHet3pG6jqMticvGIZGZf69Oq/FGPiLWyKdUNviolK6FjXIg/NIjUU3z+5hkIx92uGXjkNn+QpZDnq9o5AOzS26PNPJQKRGMR9tZpTINouHB5BlwjXwmOFzrwKxnUTHE+taBFPUNJftpjh5Hw5DozsOX0DoQcfW1+i2iB3hek5/OYinc/Wbew1jEofQ2ZzkwGBCNR6MBUVQC1zrQkdpmxZdywTjCXyOmIeaKvyr/n/uUX8uZcVhKYBpkhTQhagTCfI8TblbcPAdcZRyQiTjLsbpZ8THHYrpsL7eJYGhu7SHWBmR45AxOOpsVO9xmpTA/HmFIM3oQH49QXBqPAEbh56b4JsIQpaOHu/e1shbLYxWSH4/wk4iNA/UPorvpkgjy84HRXqU6cRz0pz3csZzLBTjRZetbP+8a24Ge6LyUjkdwuAGQ7AAMer3BYGz/+yGfBzK1Vw1k4nSofqI7+UN+WANI0IB2INP+SxrIJLcGY5v7leXxYGhDDtnJLw1kqpiBTKg1LszGBP4Hitggp1TicCMgYxnSg+yMA8UI77xdXB4Baac9rgeRR0cm7RzVViCVxc9mPVQGzGYzPho7+bQ4ApJHMh36Uv0OuGa/cThSGXO0zz1AxUgAKflPxIZOv14zdJp1qxBwycOqk2Y3PnRagFQWlGDCot8Nnb6RQq1DpnnotMPx7l/27sBDXjQM4PgAva/CDBOaVdVOgKHTO0Jgmp6q1FSoAZAC3L+x5/b+4Nvlzure+jW3u3M7O3MHF/N+l0H2w/tgX6wnY5hEKser4zyBy2MfPOUr2LtqfdG1PqjU/f8pHgmjjLuwDyuUItH29hdOp66o8ZdOwKiRqdvO7jUWS1dBE6s1OvvbEuiDLA6gu7QxvlM78sMJ5y4f3SSyXSB+VCOMzt95w/NS1rpUvwCNDsLiiDD+h+N71ymzO47FSmAJWhA1OeYwEvoQwpxQV7IP3aZbXXJu5wPxizJH1KEPzvIBltRNJCUNUzDlqubHc9Iwx+VNFGiw6bxLTk/DEFKxPc45bnR0PvzYxJJG51NnLNY954JVLQmQQI6qps4f8+xYtpYYAsDDi6Tpl5wBchUAQCAWbVnn68EVJ0eUCe3WV1ZKIBSttjxkdL66qSK5P/rmz4Ikl9zO9FsrBQglK6aODjg4iQAsf4/u+mV6FmvcBC0tSQXQNM00TfpJAFIxypEF7neuQo21ABpJ+4AAdYsiG7+keiK5IM9fo59UDQgd7TQfLK03oQm/2VAzQMxf44flh/kGJ5fC8e43RlkshaSl47yWVSEuf7R4iN8y7AgWqNsr+1UOf3gpFsuub7MUo/KIHVRM6g0O2wN57fxxqGJZOg1ovTRrx/l+Q81OQHx0nOytfVhsuj7qqoY+OvjEmN15LJZB0ljgMIcEfj7ECxwtk0FVrrhoTn8Rf3a5TExlYv//FWsO9+fkx/dwED0nakNwv3M7D6QjdRw6uWFAXFFnz+49FsswiXhAnMCffnjErVsfPP2aA7Hhe0fJ4ARuXQX9fTOpdI/4cc6h9/kEjI79pol9ZUGOhBF1lPztcG2lGrs3aCzWk0dSuVpjhIcQyloJNHd7ze3OHO4doW5i2a4GQVwjfDrnvLRS8JQbrlQIouO748siHO9FFou1NTySBnJcHg6HpopEH8zk6QZnrzyNfHJaokzyakxMCMWiauhBy9gKUqIa2xvczy510ujawbknx2KxtqvEJDQA+qGp+6cbnf3bB0dUV5lNtKe9pw3nHAZMftnd6PTPzvjkWCzWVjGef02S572hb/+zm3BbfbV/ThLv2VB29r9xu9HtV9Tde3+1BwckAAAAAIL+v25HoB4BAAAAAAAAAAAAAAAAAAAAAAAAAAAAAAAAAAAAAAAAAAAAAAAAAAAAAAAAAAAAAAAAABDXoBiXP3jbCgAAAABJRU5ErkJggg==;" parent="1" vertex="1">
          <mxGeometry x="120" y="110.01" width="640" height="360.29" as="geometry" />
        </mxCell>
        <mxCell id="Dre4zNSUhhUe5slktHId-2" value="&lt;b&gt;Toggle Swerve Motors&lt;/b&gt;" style="text;html=1;align=center;verticalAlign=middle;whiteSpace=wrap;rounded=0;" parent="1" vertex="1">
          <mxGeometry x="320" y="120" width="140" height="30" as="geometry" />
        </mxCell>
        <mxCell id="Dre4zNSUhhUe5slktHId-3" value="&lt;b&gt;Field Centric&lt;/b&gt;" style="text;html=1;align=center;verticalAlign=middle;whiteSpace=wrap;rounded=0;" parent="1" vertex="1">
          <mxGeometry x="80" y="275.15" width="100" height="30" as="geometry" />
        </mxCell>
        <mxCell id="Dre4zNSUhhUe5slktHId-4" value="&lt;b&gt;Robot Centric&lt;/b&gt;" style="text;html=1;align=center;verticalAlign=middle;whiteSpace=wrap;rounded=0;" parent="1" vertex="1">
          <mxGeometry x="200" y="270" width="100" height="30" as="geometry" />
        </mxCell>
        <mxCell id="Dre4zNSUhhUe5slktHId-5" value="&lt;b&gt;Angle Field Centric&lt;/b&gt;" style="text;html=1;align=center;verticalAlign=middle;whiteSpace=wrap;rounded=0;" parent="1" vertex="1">
          <mxGeometry x="140" y="310" width="100" height="30" as="geometry" />
        </mxCell>
        <mxCell id="Dre4zNSUhhUe5slktHId-7" value="&lt;b&gt;Drive Speed LOW&lt;/b&gt;" style="text;html=1;align=center;verticalAlign=middle;whiteSpace=wrap;rounded=0;" parent="1" vertex="1">
          <mxGeometry x="130" y="205.14999999999998" width="100" height="30" as="geometry" />
        </mxCell>
        <mxCell id="Dre4zNSUhhUe5slktHId-8" value="&lt;b&gt;Drive Speed HIGH&lt;/b&gt;" style="text;html=1;align=center;verticalAlign=middle;whiteSpace=wrap;rounded=0;" parent="1" vertex="1">
          <mxGeometry x="670" y="215.15" width="110" height="30" as="geometry" />
        </mxCell>
        <mxCell id="Dre4zNSUhhUe5slktHId-9" value="&lt;b&gt;Reset Robot&lt;/b&gt;&lt;div&gt;&lt;b&gt;Angle&lt;/b&gt;&lt;/div&gt;" style="text;html=1;align=center;verticalAlign=middle;whiteSpace=wrap;rounded=0;" parent="1" vertex="1">
          <mxGeometry x="330" y="181.3" width="60" height="44.85" as="geometry" />
        </mxCell>
        <mxCell id="Dre4zNSUhhUe5slktHId-13" value="" style="endArrow=classic;html=1;rounded=0;exitX=0.5;exitY=1;exitDx=0;exitDy=0;entryX=0.344;entryY=0.472;entryDx=0;entryDy=0;entryPerimeter=0;" parent="1" source="Dre4zNSUhhUe5slktHId-9" target="Dre4zNSUhhUe5slktHId-1" edge="1">
          <mxGeometry width="50" height="50" relative="1" as="geometry">
            <mxPoint x="80" y="160" as="sourcePoint" />
            <mxPoint x="130" y="110" as="targetPoint" />
          </mxGeometry>
        </mxCell>
        <mxCell id="Dre4zNSUhhUe5slktHId-14" value="&lt;b&gt;Drive&lt;/b&gt;" style="text;html=1;align=center;verticalAlign=middle;whiteSpace=wrap;rounded=0;" parent="1" vertex="1">
          <mxGeometry x="300" y="440.3" width="100" height="30" as="geometry" />
        </mxCell>
        <mxCell id="Dre4zNSUhhUe5slktHId-15" value="&lt;b&gt;Rotate&lt;/b&gt; or&lt;div&gt;&lt;br&gt;&lt;/div&gt;" style="text;html=1;align=left;verticalAlign=middle;whiteSpace=wrap;rounded=0;" parent="1" vertex="1">
          <mxGeometry x="460" y="445.23" width="190" height="20.15" as="geometry" />
        </mxCell>
        <mxCell id="Dre4zNSUhhUe5slktHId-16" value="&lt;div&gt;&lt;b&gt;Select Angle&lt;/b&gt;&lt;i&gt; in Angle Field Centric&lt;/i&gt;&lt;/div&gt;" style="text;html=1;align=left;verticalAlign=middle;whiteSpace=wrap;rounded=0;" parent="1" vertex="1">
          <mxGeometry x="460" y="450.45" width="200" height="30" as="geometry" />
        </mxCell>
        <mxCell id="Dre4zNSUhhUe5slktHId-17" value="&lt;b&gt;&lt;font style=&quot;font-size: 19px;&quot;&gt;Driver Controller&lt;/font&gt;&lt;/b&gt;" style="text;html=1;align=center;verticalAlign=middle;whiteSpace=wrap;rounded=0;" parent="1" vertex="1">
          <mxGeometry x="330" y="90" width="220" height="30" as="geometry" />
        </mxCell>
        <mxCell id="Sbi9m-Vkhul2fB6xkHcH-1" value="&lt;b&gt;Swap Controller&lt;/b&gt;&lt;div&gt;&lt;b&gt;Directions&lt;/b&gt;&lt;/div&gt;" style="text;html=1;align=center;verticalAlign=middle;whiteSpace=wrap;rounded=0;" vertex="1" parent="1">
          <mxGeometry x="140" y="245.14999999999998" width="100" height="30" as="geometry" />
        </mxCell>
      </root>
    </mxGraphModel>
  </diagram>
</mxfile>
